<?xml version="1.0" encoding="UTF-8" standalone="no"?>
<!-- Created with Inkscape (http://www.inkscape.org/) -->

<svg
   xmlns:dc="http://purl.org/dc/elements/1.1/"
   xmlns:cc="http://creativecommons.org/ns#"
   xmlns:rdf="http://www.w3.org/1999/02/22-rdf-syntax-ns#"
   xmlns:svg="http://www.w3.org/2000/svg"
   xmlns="http://www.w3.org/2000/svg"
   xmlns:sodipodi="http://sodipodi.sourceforge.net/DTD/sodipodi-0.dtd"
   xmlns:inkscape="http://www.inkscape.org/namespaces/inkscape"
   version="1.1"
   id="svg52"
   width="246.65648"
   height="288.36771"
   viewBox="0 0 246.65648 288.36771"
   sodipodi:docname="Logo.svg"
   inkscape:version="0.92.2 (5c3e80d, 2017-08-06)">
  <metadata
     id="metadata58">
    <rdf:RDF>
      <cc:Work
         rdf:about="">
        <dc:format>image/svg+xml</dc:format>
        <dc:type
           rdf:resource="http://purl.org/dc/dcmitype/StillImage" />
        <dc:title></dc:title>
      </cc:Work>
    </rdf:RDF>
  </metadata>
  <defs
     id="defs56" />
  <sodipodi:namedview
     pagecolor="#ffffff"
     bordercolor="#666666"
     borderopacity="1"
     objecttolerance="10"
     gridtolerance="10"
     guidetolerance="10"
     inkscape:pageopacity="0"
     inkscape:pageshadow="2"
     inkscape:window-width="1366"
     inkscape:window-height="745"
     id="namedview54"
     showgrid="false"
     fit-margin-top="0"
     fit-margin-left="0"
     fit-margin-right="0"
     fit-margin-bottom="0"
     inkscape:zoom="0.68604651"
     inkscape:cx="120.82597"
     inkscape:cy="140.1712"
     inkscape:window-x="-8"
     inkscape:window-y="-8"
     inkscape:window-maximized="1"
     inkscape:current-layer="svg52" />
  <g
     id="g62"
     transform="translate(-13.343525,-29.634008)">
    <path
       style="fill:#96f8f8"
       d="m 20.212854,316.89842 c -0.628813,-0.76913 -2.543791,-3.07251 -4.255506,-5.11862 -1.711716,-2.04612 -2.866562,-4.11768 -2.566324,-4.60347 0.300238,-0.4858 3.645362,-1.17133 7.433608,-1.52341 15.977085,-1.48492 21.945115,-6.17609 17.933971,-14.09701 -1.520158,-3.00189 -1.740584,-4.35512 -0.922725,-5.66472 0.809202,-1.29574 0.715201,-2.01887 -0.380661,-2.92836 -2.435537,-2.02131 -1.64552,-3.98213 2.294783,-5.69562 2.832859,-1.23191 7.103118,-1.64743 17.460208,-1.69898 14.525513,-0.0723 16.543428,0.51838 17.198877,5.03433 0.223848,1.54228 1.394869,2.00631 6.256192,2.47905 3.289437,0.31989 6.556344,0.93733 7.259793,1.37208 C 90.213238,285.86786 92,291.80317 92,297.98991 v 6.05414 l -4.75,3.01299 c -2.6125,1.65714 -7,3.69963 -9.75,4.53886 -15.293604,4.66722 -54.815754,8.32541 -57.287146,5.30252 z M 51,311.33512 c 13.320352,-1.84299 21.150426,-4.4396 23.890011,-7.92242 1.634302,-2.07768 1.778356,-3.04054 0.925594,-6.18667 -1.198051,-4.42002 -4.358411,-9.85227 -6.085841,-10.46078 C 69.053394,286.52699 63.325,286.59484 57,286.91603 46.212648,287.46381 45.520531,287.62394 45.831309,289.5 c 0.18222,1.1 0.569334,3.46577 0.860253,5.25726 0.332319,2.04643 -0.04326,4.13055 -1.010348,5.60652 -1.991348,3.03918 -9.523363,6.55263 -16.471593,7.68348 -6.369414,1.03665 -6.92193,1.38953 -5.27765,3.37077 2.176406,2.62241 7.636042,2.60569 27.068029,-0.0829 z M 85,295.94898 C 85,288.92403 83.622183,286 80.311994,286 c -1.73321,0 -1.513386,1.69725 1.152656,8.89956 1.026229,2.77236 1.378295,5.53902 0.951901,7.48038 -0.60766,2.76666 -0.510438,2.94287 0.953394,1.728 C 84.584509,303.09994 85,301.02027 85,295.94898 Z M 58.743026,281.59031 c 1.50492,-1.50492 -2.549689,-2.5939 -8.743026,-2.34819 -6.494686,0.25767 -8.238149,1.61275 -3.809017,2.9605 2.717512,0.82691 11.543357,0.39637 12.552043,-0.61231 z M 213,311.31753 c -15.2017,-1.57402 -21.03524,-3.29776 -25.75,-7.60882 -5.34219,-4.88475 0.009,-11.47002 11.43102,-14.06797 13.15952,-2.99307 41.57857,-4.61142 48.31898,-2.75157 1.98399,0.54744 2.56239,1.42773 2.80229,4.26487 0.27943,3.30475 0.0621,3.62309 -2.875,4.2105 -1.74751,0.3495 -4.47104,0.63546 -6.05229,0.63546 -1.58125,0 -2.875,0.45 -2.875,1 0,0.58763 3.4783,1 8.4349,1 11.13848,0 13.5651,0.94526 13.5651,5.28412 0,5.71451 -1.81808,7.05702 -10.64351,7.85934 -7.99434,0.72677 -30.00095,0.83213 -36.35649,0.17407 z m 27,-5.16643 c 4.70525,-0.55702 5.54618,-0.97623 5.81955,-2.9011 0.30155,-2.12328 -0.0255,-2.25 -5.80718,-2.25 -6.74677,0 -14.68619,-1.66321 -15.68961,-3.28678 -1.1034,-1.78533 4.27749,-5.42619 9.0849,-6.1471 2.52579,-0.37877 4.59234,-1.17386 4.59234,-1.76688 0,-1.64853 -20.82082,-0.27819 -31.94208,2.1023 -7.57729,1.62192 -10.02124,2.60024 -12.37462,4.95362 -3.38914,3.38914 -2.98041,4.6814 2.18878,6.92013 5.31272,2.3009 32.42864,3.7608 44.12792,2.37581 z m -122.5,2.20523 c -6.19062,-1.00239 -15.00905,-3.57538 -18.69002,-5.45327 C 95.76398,301.34911 95,300.39682 95,298.15399 c 0,-3.67261 2.877839,-6.26043 11.5,-10.34107 l 7,-3.31292 27.5,0.007 27.5,0.007 6.75,3.19095 c 5.7586,2.72228 6.75,3.56899 6.75,5.76492 0,1.77516 -0.77586,2.92748 -2.5,3.71305 -2.02895,0.92446 -2.5,1.85588 -2.5,4.94338 0,2.8801 -0.52713,4.08641 -2.16982,4.96556 -2.21059,1.18307 -51.16541,2.26364 -57.33018,1.26544 z m 33.5,-5.36538 c 1.57798,-0.51107 -1.58586,-0.79631 -8.57858,-0.7734 C 131.99319,302.25172 127,301.23318 127,299.07181 c 0,-1.44681 2.40794,-1.92368 15.69472,-3.10824 19.66962,-1.75361 23.60589,-2.3603 24.05404,-3.70742 0.64703,-1.94489 -4.4521,-3.35075 -13.73591,-3.78706 -4.68207,-0.22005 -7.16834,-0.0746 -5.52506,0.32312 1.64328,0.39776 3.12757,1.44905 3.29842,2.3362 0.37131,1.92805 -2.46418,2.84521 -8.78621,2.84198 -2.475,-0.001 -8.83347,0.74875 -14.12993,1.66672 -10.76807,1.86628 -13.55314,1.50773 -11.92461,-1.53521 0.91992,-1.71887 5.91425,-4.10189 11.55454,-5.51318 1.1,-0.27524 -1.14797,-0.24765 -4.99549,0.0613 -10.62967,0.85356 -22.566957,5.96082 -18.01503,7.70756 0.8473,0.32514 1.95916,1.69223 2.47082,3.03799 0.79157,2.08199 1.79582,2.54455 6.73499,3.10215 3.19259,0.36042 6.25471,0.81035 6.80471,0.99984 2.04739,0.7054 28.09359,0.27276 30.5,-0.50662 z M 17.340834,251.44582 C 17.108206,250.8396 17.048852,236.12916 17.208937,218.75595 L 17.5,187.16831 l 3.044405,-4.33416 c 1.674422,-2.38378 5.049422,-5.45915 7.5,-6.83415 4.250068,-2.38468 5.346393,-2.51582 23.767103,-2.84297 21.281933,-0.37797 23.75719,-0.0913 24.693838,2.85981 1.034466,3.25932 2.168036,1.43673 2.77717,-4.46521 1.143968,-11.08399 9.295009,-20.86385 20.051284,-24.05812 7.34449,-2.18108 63.03154,-2.16812 70.38754,0.0164 10.12269,3.00611 18.05971,12.97763 19.82775,24.91019 0.6719,4.53468 0.83911,4.76968 2.13453,3 1.3095,-1.78889 2.85441,-1.92008 22.61096,-1.92008 20.76429,0 21.29811,0.052 25.66102,2.5 2.45057,1.375 5.82557,4.45067 7.5,6.83482 l 3.0444,4.33483 v 32.63284 32.63285 l -116.3681,0.0564 C 50.233873,252.53231 17.645776,252.24048 17.340834,251.44582 Z M 215.5,184 c 0.37381,-0.60483 -1.00929,-1 -3.5,-1 -2.49071,0 -3.87381,0.39517 -3.5,1 0.33992,0.55 1.91492,1 3.5,1 1.58508,0 3.16008,-0.45 3.5,-1 z m -77.98477,-4.04799 c 0.83257,-2.62318 -1.2388,-5.13488 -3.91751,-4.75027 -2.14321,0.30772 -3.18436,2.82711 -2.21368,5.35667 0.86056,2.24259 5.36846,1.79674 6.13119,-0.6064 z m 0.0202,-12.06352 c 0.41709,-1.31413 0.10701,-2.67466 -0.8211,-3.60278 -2.10761,-2.1076 -5.71429,-0.77267 -5.71429,2.11501 0,1.24627 0.3,2.56595 0.66667,2.93261 1.51321,1.51322 5.21947,0.60076 5.86872,-1.44484 z M 48.491423,165.13502 C 43.874834,163.03775 38.377585,157.20931 37.264449,153.23166 36.844002,151.72925 36.5,141.4641 36.5,130.42023 v -20.07977 l 3,-4.84259 C 43.335164,99.30716 49.254569,96 56.5,96 c 7.245431,0 13.164836,3.30716 17,9.49787 l 3,4.84259 v 20.07977 c 0,11.04387 -0.344002,21.30902 -0.764449,22.81143 -0.420447,1.50241 -2.177841,4.34142 -3.90532,6.30891 -6.30918,7.18576 -15.163813,9.30827 -23.338808,5.59445 z m 154.566547,-0.32017 c -6.03438,-3.14466 -9.79533,-8.15695 -11.03826,-14.71093 -1.31369,-6.92706 -1.31757,-30.26036 -0.006,-37.17531 2.0015,-10.55385 8.31708,-16.157663 18.87708,-16.749628 6.14098,-0.344247 6.95879,-0.133393 11.53973,2.975257 8.31003,5.639231 9.01745,7.993591 9.37903,31.214251 0.30531,19.6074 0.2756,19.93753 -2.26061,25.12135 -3.47385,7.10029 -8.80742,10.76909 -16.37963,11.26705 -4.47654,0.29438 -6.6036,-0.11416 -10.11117,-1.94204 z m -77.73379,-26.194 c -12.02431,-3.93354 -20.03173,-13.262 -22.40526,-26.10161 -0.66704,-3.60837 -0.95784,-15.948822 -0.75288,-31.949237 0.32866,-25.656 0.37527,-26.15807 2.93507,-31.615634 3.41432,-7.279402 7.61587,-11.938204 13.80386,-15.306132 16.09724,-8.761213 35.1598,-2.753052 43.94858,13.851763 l 2.64645,5 0.30239,30.572464 c 0.28823,29.141406 0.20275,30.838766 -1.82617,36.261546 -2.56093,6.8447 -9.35224,14.12782 -16.37432,17.56011 -5.97822,2.92206 -16.2015,3.71446 -22.27772,1.72673 z M 148,84.5 c 0,-2 -0.5,-2.5 -2.5,-2.5 -2,0 -2.5,0.5 -2.5,2.5 0,2 0.5,2.5 2.5,2.5 2,0 2.5,-0.5 2.5,-2.5 z m 0,-17.875 c 0,-2.95625 -0.28826,-6.81628 -0.64057,-8.577844 C 146.48536,53.676815 140.98915,48 137.63192,48 c -3.84036,0 -3.37124,2.879363 1.07769,6.614574 3.53751,2.970002 3.72842,3.445786 4.1129,10.25 C 143.20346,71.60648 143.35735,72 145.61285,72 147.83297,72 148,71.623909 148,66.625 Z"
       id="path76"
       inkscape:connector-curvature="0" />
    <path
       style="fill:#fb9563"
       d="m 20.212854,316.89842 c -0.628813,-0.76913 -2.543791,-3.07251 -4.255506,-5.11862 -1.711716,-2.04612 -2.866562,-4.11768 -2.566324,-4.60347 0.300238,-0.4858 3.645362,-1.17133 7.433608,-1.52341 15.977085,-1.48492 21.945115,-6.17609 17.933971,-14.09701 -1.520158,-3.00189 -1.740584,-4.35512 -0.922725,-5.66472 0.809202,-1.29574 0.715201,-2.01887 -0.380661,-2.92836 -2.435537,-2.02131 -1.64552,-3.98213 2.294783,-5.69562 2.832859,-1.23191 7.103118,-1.64743 17.460208,-1.69898 14.525513,-0.0723 16.543428,0.51838 17.198877,5.03433 0.223848,1.54228 1.394869,2.00631 6.256192,2.47905 3.289437,0.31989 6.556344,0.93733 7.259793,1.37208 C 90.213238,285.86786 92,291.80317 92,297.98991 v 6.05414 l -4.75,3.01299 c -2.6125,1.65714 -7,3.69963 -9.75,4.53886 -15.293604,4.66722 -54.815754,8.32541 -57.287146,5.30252 z M 51,311.33512 c 13.320352,-1.84299 21.150426,-4.4396 23.890011,-7.92242 1.634302,-2.07768 1.778356,-3.04054 0.925594,-6.18667 -1.198051,-4.42002 -4.358411,-9.85227 -6.085841,-10.46078 C 69.053394,286.52699 63.325,286.59484 57,286.91603 46.212648,287.46381 45.520531,287.62394 45.831309,289.5 c 0.18222,1.1 0.569334,3.46577 0.860253,5.25726 0.332319,2.04643 -0.04326,4.13055 -1.010348,5.60652 -1.991348,3.03918 -9.523363,6.55263 -16.471593,7.68348 -6.369414,1.03665 -6.92193,1.38953 -5.27765,3.37077 2.176406,2.62241 7.636042,2.60569 27.068029,-0.0829 z M 85,295.94898 C 85,288.92403 83.622183,286 80.311994,286 c -1.73321,0 -1.513386,1.69725 1.152656,8.89956 1.026229,2.77236 1.378295,5.53902 0.951901,7.48038 -0.60766,2.76666 -0.510438,2.94287 0.953394,1.728 C 84.584509,303.09994 85,301.02027 85,295.94898 Z M 58.743026,281.59031 c 1.50492,-1.50492 -2.549689,-2.5939 -8.743026,-2.34819 -6.494686,0.25767 -8.238149,1.61275 -3.809017,2.9605 2.717512,0.82691 11.543357,0.39637 12.552043,-0.61231 z M 213,311.31753 c -15.2017,-1.57402 -21.03524,-3.29776 -25.75,-7.60882 -5.34219,-4.88475 0.009,-11.47002 11.43102,-14.06797 13.15952,-2.99307 41.57857,-4.61142 48.31898,-2.75157 1.98399,0.54744 2.56239,1.42773 2.80229,4.26487 0.27943,3.30475 0.0621,3.62309 -2.875,4.2105 -1.74751,0.3495 -4.47104,0.63546 -6.05229,0.63546 -1.58125,0 -2.875,0.45 -2.875,1 0,0.58763 3.4783,1 8.4349,1 11.13848,0 13.5651,0.94526 13.5651,5.28412 0,5.71451 -1.81808,7.05702 -10.64351,7.85934 -7.99434,0.72677 -30.00095,0.83213 -36.35649,0.17407 z m 27,-5.16643 c 4.70525,-0.55702 5.54618,-0.97623 5.81955,-2.9011 0.30155,-2.12328 -0.0255,-2.25 -5.80718,-2.25 -6.74677,0 -14.68619,-1.66321 -15.68961,-3.28678 -1.1034,-1.78533 4.27749,-5.42619 9.0849,-6.1471 2.52579,-0.37877 4.59234,-1.17386 4.59234,-1.76688 0,-1.64853 -20.82082,-0.27819 -31.94208,2.1023 -7.57729,1.62192 -10.02124,2.60024 -12.37462,4.95362 -3.38914,3.38914 -2.98041,4.6814 2.18878,6.92013 5.31272,2.3009 32.42864,3.7608 44.12792,2.37581 z m -122.5,2.20523 c -6.19062,-1.00239 -15.00905,-3.57538 -18.69002,-5.45327 C 95.76398,301.34911 95,300.39682 95,298.15399 c 0,-3.67261 2.877839,-6.26043 11.5,-10.34107 l 7,-3.31292 27.5,0.007 27.5,0.007 6.75,3.19095 c 5.7586,2.72228 6.75,3.56899 6.75,5.76492 0,1.77516 -0.77586,2.92748 -2.5,3.71305 -2.02895,0.92446 -2.5,1.85588 -2.5,4.94338 0,2.8801 -0.52713,4.08641 -2.16982,4.96556 -2.21059,1.18307 -51.16541,2.26364 -57.33018,1.26544 z m 33.5,-5.36538 c 1.57798,-0.51107 -1.58586,-0.79631 -8.57858,-0.7734 C 131.99319,302.25172 127,301.23318 127,299.07181 c 0,-1.44681 2.40794,-1.92368 15.69472,-3.10824 19.66962,-1.75361 23.60589,-2.3603 24.05404,-3.70742 0.64703,-1.94489 -4.4521,-3.35075 -13.73591,-3.78706 -4.68207,-0.22005 -7.16834,-0.0746 -5.52506,0.32312 1.64328,0.39776 3.12757,1.44905 3.29842,2.3362 0.37131,1.92805 -2.46418,2.84521 -8.78621,2.84198 -2.475,-0.001 -8.83347,0.74875 -14.12993,1.66672 -10.76807,1.86628 -13.55314,1.50773 -11.92461,-1.53521 0.91992,-1.71887 5.91425,-4.10189 11.55454,-5.51318 1.1,-0.27524 -1.14797,-0.24765 -4.99549,0.0613 -10.62967,0.85356 -22.566957,5.96082 -18.01503,7.70756 0.8473,0.32514 1.95916,1.69223 2.47082,3.03799 0.79157,2.08199 1.79582,2.54455 6.73499,3.10215 3.19259,0.36042 6.25471,0.81035 6.80471,0.99984 2.04739,0.7054 28.09359,0.27276 30.5,-0.50662 z M 17.427552,251.6718 c -0.280323,-0.73051 -0.3787,-15.54264 -0.218615,-32.91585 L 17.5,187.16831 l 3.044405,-4.33416 c 1.674422,-2.38378 5.049422,-5.45915 7.5,-6.83415 4.250068,-2.38468 5.346393,-2.51582 23.767103,-2.84297 10.62133,-0.18863 20.378837,-0.0751 21.68335,0.25232 2.895746,0.72679 3.892602,3.44135 2.555359,6.95857 C 75.100474,182.86593 74.691689,183 68.024751,183 H 61 v 8.8 c 0,9.53379 -0.743843,11.2 -5,11.2 -4.265636,0 -5,-1.66069 -5,-11.30699 0,-7.71116 -0.212366,-8.8255 -1.581787,-8.3 -0.869984,0.33385 -1.769984,0.60699 -2,0.60699 C 47.188196,184 47,198.78026 47,216.84501 c 0,30.54972 -0.127797,32.96067 -1.828741,34.5 -2.247508,2.03397 -7.005492,2.09494 -9.612389,0.12319 C 33.041203,249.56393 27.591749,249.58206 26,251.5 c -1.543994,1.8604 -7.875778,1.98729 -8.572448,0.1718 z m 50.039266,0.10232 c -0.28441,-0.74116 -0.393294,-8.98104 -0.241964,-18.31084 L 67.5,216.5 h 4 4 v 18 18 l -3.758037,0.31084 c -2.463675,0.20379 -3.936141,-0.15329 -4.275145,-1.03672 z M 79.412099,250.5 c -0.275354,-1.1 -0.36822,-20.45 -0.206371,-43 l 0.294272,-41 2.979283,-5.37926 c 3.547641,-6.40547 9.940026,-11.57384 16.854517,-13.62723 7.34449,-2.18108 63.03154,-2.16812 70.38754,0.0164 10.06186,2.98805 18.06074,12.98152 19.80225,24.74011 0.64071,4.32609 2.47641,6.76882 2.47641,3.29531 0,-2.26927 5.25611,-2.76873 25.17217,-2.392 17.36395,0.32846 18.56215,0.47817 22.78343,2.84669 2.45057,1.375 5.82557,4.45067 7.5,6.83482 l 3.0444,4.33483 v 32.66517 32.66518 l -3.39514,0.32418 c -2.04185,0.19497 -3.72977,-0.20363 -4.23468,-1 -0.46176,-0.7283 -0.84645,-14.27613 -0.85487,-30.1063 -0.0169,-31.7832 -0.41954,-34.3242 -5.88687,-37.15146 -4.96196,-2.56593 -7.49872,-2.02345 -10.2109,2.18358 -1.57815,2.44797 -4.23915,4.61802 -7.66398,6.25 l -5.24645,2.5 -0.004,27.69098 c -0.003,20.77026 -0.30974,27.88021 -1.22862,28.44812 -0.67379,0.41642 -30.61842,0.78048 -66.54363,0.80901 -64.506808,0.0512 -65.324791,0.027 -65.819211,-1.94811 z M 215.5,184 c 0.37381,-0.60483 -1.00929,-1 -3.5,-1 -2.49071,0 -3.87381,0.39517 -3.5,1 0.33992,0.55 1.91492,1 3.5,1 1.58508,0 3.16008,-0.45 3.5,-1 z m -77.98477,-4.04799 c 0.83257,-2.62318 -1.2388,-5.13488 -3.91751,-4.75027 -2.14321,0.30772 -3.18436,2.82711 -2.21368,5.35667 0.86056,2.24259 5.36846,1.79674 6.13119,-0.6064 z m 0.0202,-12.06352 c 0.41709,-1.31413 0.10701,-2.67466 -0.8211,-3.60278 -2.10761,-2.1076 -5.71429,-0.77267 -5.71429,2.11501 0,1.24627 0.3,2.56595 0.66667,2.93261 1.51321,1.51322 5.21947,0.60076 5.86872,-1.44484 z m 85.49979,83.17725 c -1.1072,-2.06883 -1.42798,-28.99726 -0.39152,-32.86689 0.53545,-1.99909 1.15714,-2.26161 4.73635,-2 L 231.5,216.5 l 0.28587,16 c 0.35504,19.87123 0.22408,20.5 -4.26974,20.5 -2.38327,0 -3.76496,-0.59642 -4.48095,-1.93426 z M 48.491423,165.13502 C 43.874834,163.03775 38.377585,157.20931 37.264449,153.23166 36.844002,151.72925 36.5,141.4641 36.5,130.42023 v -20.07977 l 3,-4.84259 C 43.335164,99.30716 49.254569,96 56.5,96 c 7.245431,0 13.164836,3.30716 17,9.49787 l 3,4.84259 v 20.07977 c 0,11.04387 -0.344002,21.30902 -0.764449,22.81143 -0.420447,1.50241 -2.177841,4.34142 -3.90532,6.30891 -6.30918,7.18576 -15.163813,9.30827 -23.338808,5.59445 z m 154.566547,-0.32017 c -6.03438,-3.14466 -9.79533,-8.15695 -11.03826,-14.71093 -1.31369,-6.92706 -1.31757,-30.26036 -0.006,-37.17531 2.0015,-10.55385 8.31708,-16.157663 18.87708,-16.749628 6.14098,-0.344247 6.95879,-0.133393 11.53973,2.975257 8.31003,5.639231 9.01745,7.993591 9.37903,31.214251 0.30531,19.6074 0.2756,19.93753 -2.26061,25.12135 -3.47385,7.10029 -8.80742,10.76909 -16.37963,11.26705 -4.47654,0.29438 -6.6036,-0.11416 -10.11117,-1.94204 z m 16.86945,-11.44971 C 221.86504,150.90185 222,149.44627 222,131.01116 c 0,-19.68353 -0.005,-19.72402 -2.51715,-22.43516 -2.95477,-3.18826 -5.43647,-3.03891 -7.19299,0.43286 -1.54115,3.04609 -1.8064,40.50234 -0.31461,44.42604 1.31647,3.46258 5.20043,3.42851 7.95217,-0.0698 z m -94.60324,-14.74429 c -12.02431,-3.93354 -20.03173,-13.262 -22.40526,-26.10161 -0.66704,-3.60837 -0.95784,-15.948822 -0.75288,-31.949237 0.32866,-25.656 0.37527,-26.15807 2.93507,-31.615634 3.41432,-7.279402 7.61587,-11.938204 13.80386,-15.306132 16.09724,-8.761213 35.1598,-2.753052 43.94858,13.851763 l 2.64645,5 0.30239,30.572464 c 0.28823,29.141406 0.20275,30.838766 -1.82617,36.261546 -2.56093,6.8447 -9.35224,14.12782 -16.37432,17.56011 -5.97822,2.92206 -16.2015,3.71446 -22.27772,1.72673 z M 133.22104,126.25 c -6.80555,-8.65989 -6.69016,-8.02068 -7.04067,-39.004575 -0.36202,-32.001647 0.19699,-35.821461 6.28269,-42.931238 C 134.40838,42.041523 136,39.916105 136,39.591036 136,39.265966 134.34208,39 132.31572,39 124.39322,39 115.55039,45.881879 113.14143,53.922284 112.4084,56.368908 112,67.395596 112,84.740293 c 0,29.524377 0.52197,33.006787 5.78885,38.621637 3.53334,3.76677 9.7369,6.58857 14.54518,6.61611 l 3.83403,0.022 -2.94702,-3.75 z m 14.73328,-38.694958 c 0.65956,-0.794727 1.05216,-2.482227 0.87244,-3.75 C 148.56849,81.983165 147.87116,81.5 145.5,81.5 c -2.37116,0 -3.06849,0.483165 -3.32676,2.305042 C 141.81521,86.330648 143.52461,89 145.5,89 c 0.69031,0 1.79475,-0.650231 2.45432,-1.444958 z m 0.85181,-21.013799 c 0.37719,-7.341786 -1.80033,-13.517127 -6.01763,-17.065752 -4.0982,-3.448408 -8.16058,-3.086719 -8.60411,0.766055 -0.24766,2.151392 0.25282,3.000539 2.325,3.944686 3.64163,1.65924 5.49061,5.733081 5.49061,12.097441 0,6.168651 0.45777,6.920961 3.96258,6.512237 2.35918,-0.275124 2.55892,-0.714475 2.84355,-6.254667 z"
       id="path74"
       inkscape:connector-curvature="0" />
    <path
       style="fill:#9f9f9f"
       d="m 20.212854,316.89842 c -0.628813,-0.76913 -2.543791,-3.07251 -4.255506,-5.11862 -1.711716,-2.04612 -2.866562,-4.11768 -2.566324,-4.60347 0.300238,-0.4858 3.645362,-1.17133 7.433608,-1.52341 15.977085,-1.48492 21.945115,-6.17609 17.933971,-14.09701 -1.520158,-3.00189 -1.740584,-4.35512 -0.922725,-5.66472 0.809202,-1.29574 0.715201,-2.01887 -0.380661,-2.92836 -2.435537,-2.02131 -1.64552,-3.98213 2.294783,-5.69562 2.832859,-1.23191 7.103118,-1.64743 17.460208,-1.69898 14.525513,-0.0723 16.543428,0.51838 17.198877,5.03433 0.223848,1.54228 1.394869,2.00631 6.256192,2.47905 3.289437,0.31989 6.556344,0.93733 7.259793,1.37208 C 90.213238,285.86786 92,291.80317 92,297.98991 v 6.05414 l -4.75,3.01299 c -2.6125,1.65714 -7,3.69963 -9.75,4.53886 -15.293604,4.66722 -54.815754,8.32541 -57.287146,5.30252 z M 51,311.33512 c 13.320352,-1.84299 21.150426,-4.4396 23.890011,-7.92242 1.634302,-2.07768 1.778356,-3.04054 0.925594,-6.18667 -1.198051,-4.42002 -4.358411,-9.85227 -6.085841,-10.46078 C 69.053394,286.52699 63.325,286.59484 57,286.91603 46.212648,287.46381 45.520531,287.62394 45.831309,289.5 c 0.18222,1.1 0.569334,3.46577 0.860253,5.25726 0.332319,2.04643 -0.04326,4.13055 -1.010348,5.60652 -1.991348,3.03918 -9.523363,6.55263 -16.471593,7.68348 -6.369414,1.03665 -6.92193,1.38953 -5.27765,3.37077 2.176406,2.62241 7.636042,2.60569 27.068029,-0.0829 z M 85,295.94898 C 85,288.92403 83.622183,286 80.311994,286 c -1.73321,0 -1.513386,1.69725 1.152656,8.89956 1.026229,2.77236 1.378295,5.53902 0.951901,7.48038 -0.60766,2.76666 -0.510438,2.94287 0.953394,1.728 C 84.584509,303.09994 85,301.02027 85,295.94898 Z M 58.743026,281.59031 c 1.50492,-1.50492 -2.549689,-2.5939 -8.743026,-2.34819 -6.494686,0.25767 -8.238149,1.61275 -3.809017,2.9605 2.717512,0.82691 11.543357,0.39637 12.552043,-0.61231 z M 213,311.31753 c -15.2017,-1.57402 -21.03524,-3.29776 -25.75,-7.60882 -5.34219,-4.88475 0.009,-11.47002 11.43102,-14.06797 13.15952,-2.99307 41.57857,-4.61142 48.31898,-2.75157 1.98399,0.54744 2.56239,1.42773 2.80229,4.26487 0.27943,3.30475 0.0621,3.62309 -2.875,4.2105 -1.74751,0.3495 -4.47104,0.63546 -6.05229,0.63546 -1.58125,0 -2.875,0.45 -2.875,1 0,0.58763 3.4783,1 8.4349,1 11.13848,0 13.5651,0.94526 13.5651,5.28412 0,5.71451 -1.81808,7.05702 -10.64351,7.85934 -7.99434,0.72677 -30.00095,0.83213 -36.35649,0.17407 z m 27,-5.16643 c 4.70525,-0.55702 5.54618,-0.97623 5.81955,-2.9011 0.30155,-2.12328 -0.0255,-2.25 -5.80718,-2.25 -6.74677,0 -14.68619,-1.66321 -15.68961,-3.28678 -1.1034,-1.78533 4.27749,-5.42619 9.0849,-6.1471 2.52579,-0.37877 4.59234,-1.17386 4.59234,-1.76688 0,-1.64853 -20.82082,-0.27819 -31.94208,2.1023 -7.57729,1.62192 -10.02124,2.60024 -12.37462,4.95362 -3.38914,3.38914 -2.98041,4.6814 2.18878,6.92013 5.31272,2.3009 32.42864,3.7608 44.12792,2.37581 z m -122.5,2.20523 c -6.19062,-1.00239 -15.00905,-3.57538 -18.69002,-5.45327 C 95.76398,301.34911 95,300.39682 95,298.15399 c 0,-3.67261 2.877839,-6.26043 11.5,-10.34107 l 7,-3.31292 27.5,0.007 27.5,0.007 6.75,3.19095 c 5.7586,2.72228 6.75,3.56899 6.75,5.76492 0,1.77516 -0.77586,2.92748 -2.5,3.71305 -2.02895,0.92446 -2.5,1.85588 -2.5,4.94338 0,2.8801 -0.52713,4.08641 -2.16982,4.96556 -2.21059,1.18307 -51.16541,2.26364 -57.33018,1.26544 z m 33.5,-5.36538 c 1.57798,-0.51107 -1.58586,-0.79631 -8.57858,-0.7734 C 131.99319,302.25172 127,301.23318 127,299.07181 c 0,-1.44681 2.40794,-1.92368 15.69472,-3.10824 19.66962,-1.75361 23.60589,-2.3603 24.05404,-3.70742 0.64703,-1.94489 -4.4521,-3.35075 -13.73591,-3.78706 -4.68207,-0.22005 -7.16834,-0.0746 -5.52506,0.32312 1.64328,0.39776 3.12757,1.44905 3.29842,2.3362 0.37131,1.92805 -2.46418,2.84521 -8.78621,2.84198 -2.475,-0.001 -8.83347,0.74875 -14.12993,1.66672 -10.76807,1.86628 -13.55314,1.50773 -11.92461,-1.53521 0.91992,-1.71887 5.91425,-4.10189 11.55454,-5.51318 1.1,-0.27524 -1.14797,-0.24765 -4.99549,0.0613 -10.62967,0.85356 -22.566957,5.96082 -18.01503,7.70756 0.8473,0.32514 1.95916,1.69223 2.47082,3.03799 0.79157,2.08199 1.79582,2.54455 6.73499,3.10215 3.19259,0.36042 6.25471,0.81035 6.80471,0.99984 2.04739,0.7054 28.09359,0.27276 30.5,-0.50662 z M 17.427552,251.6718 c -0.280323,-0.73051 -0.3787,-15.54264 -0.218615,-32.91585 L 17.5,187.16831 l 3.044405,-4.33416 c 1.674422,-2.38378 5.049422,-5.45915 7.5,-6.83415 4.250068,-2.38468 5.346393,-2.51582 23.767103,-2.84297 10.62133,-0.18863 20.378837,-0.0751 21.68335,0.25232 2.895746,0.72679 3.892602,3.44135 2.555359,6.95857 C 75.100474,182.86593 74.691689,183 68.024751,183 H 61 v 8.8 c 0,9.53379 -0.743843,11.2 -5,11.2 -4.265636,0 -5,-1.66069 -5,-11.30699 0,-7.71116 -0.212366,-8.8255 -1.581787,-8.3 -0.869984,0.33385 -1.769984,0.60699 -2,0.60699 C 47.188196,184 47,198.78026 47,216.84501 c 0,30.54972 -0.127797,32.96067 -1.828741,34.5 -2.247508,2.03397 -7.005492,2.09494 -9.612389,0.12319 C 33.041203,249.56393 27.591749,249.58206 26,251.5 c -1.543994,1.8604 -7.875778,1.98729 -8.572448,0.1718 z m 50.039266,0.10232 c -0.28441,-0.74116 -0.393294,-8.98104 -0.241964,-18.31084 L 67.5,216.5 h 4 4 v 18 18 l -3.758037,0.31084 c -2.463675,0.20379 -3.936141,-0.15329 -4.275145,-1.03672 z M 79.47478,250.75 c -0.309828,-1.2375 -0.430901,-20.7 -0.269052,-43.25 l 0.294272,-41 2.979283,-5.37926 c 3.547641,-6.40547 9.940026,-11.57384 16.854517,-13.62723 7.34449,-2.18108 63.03154,-2.16812 70.38754,0.0164 10.06186,2.98805 18.06074,12.98152 19.80225,24.74011 0.64071,4.32609 2.47641,6.76882 2.47641,3.29531 0,-2.26927 5.25611,-2.76873 25.17217,-2.392 17.36395,0.32846 18.56215,0.47817 22.78343,2.84669 2.45057,1.375 5.82557,4.45067 7.5,6.83482 l 3.0444,4.33483 v 32.66517 32.66518 l -3.39514,0.32418 c -2.04185,0.19497 -3.72977,-0.20363 -4.23468,-1 -0.46176,-0.7283 -0.84645,-14.27613 -0.85487,-30.1063 -0.0169,-31.7832 -0.41954,-34.3242 -5.88687,-37.15146 -4.96196,-2.56593 -7.49872,-2.02345 -10.2109,2.18358 -1.57815,2.44797 -4.23915,4.61802 -7.66398,6.25 l -5.24645,2.5 -0.004,27.69098 c -0.002,15.73459 -0.40005,27.93603 -0.92183,28.25851 -1.87724,1.1602 -32.33909,1.77595 -31.63673,0.6395 C 180.90924,251.33783 178.59964,251 173,251 c -5.15738,0 -7.89264,0.3647 -7.5,1 0.37794,0.61153 -1.17595,1 -4,1 -2.82405,0 -4.37794,-0.38847 -4,-1 0.40223,-0.65082 -5.0767,-1.00535 -15.69098,-1.01531 -8.96996,-0.008 -16.88603,-0.38145 -17.59126,-0.82895 -1.01686,-0.64523 -1.22383,-9.40527 -1,-42.32453 L 123.5,166.3203 126.7087,161.16015 129.91739,156 h -13.64297 c -16.396423,0 -20.705056,1.46594 -24.788554,8.43391 L 89,168.67572 88.98635,208.58786 c -0.0075,21.95168 -0.284994,40.92464 -0.616631,42.16214 -0.493407,1.84114 -1.30518,2.25 -4.467293,2.25 -3.173862,0 -3.964969,-0.40202 -4.427641,-2.25 z M 215.5,184 c 0.37381,-0.60483 -1.00929,-1 -3.5,-1 -2.49071,0 -3.87381,0.39517 -3.5,1 0.33992,0.55 1.91492,1 3.5,1 1.58508,0 3.16008,-0.45 3.5,-1 z m -78.08179,-0.60699 C 138.52232,182.96933 139,181.48337 139,178.47247 c 0,-3.96064 -0.24065,-4.36642 -2.94135,-4.95959 -4.34871,-0.95513 -7.05865,0.89623 -7.05865,4.8223 0,1.79565 0.54,3.80482 1.2,4.46482 1.29371,1.29371 4.66949,1.57105 7.21821,0.59301 z m 0.40099,-12.26011 c 0.82661,-0.52413 1.20001,-2.29208 1,-4.73469 L 138.5,162.5 H 134 c -4.36445,0 -4.50959,0.0999 -4.81823,3.31532 -0.17503,1.82343 0.21757,3.96093 0.87244,4.75 1.30389,1.57109 5.6781,1.89083 7.76499,0.56758 z M 102,228.03518 c 0,-24.16985 -0.0655,-24.99986 -2.056466,-26.0654 -1.609913,-0.8616 -1.989918,-1.90068 -1.75,-4.78518 L 98.5,193.5 h 6 6 l 0.26488,29.75 0.26488,29.75 H 106.51488 102 Z m 121.03518,23.03056 c -1.1072,-2.06883 -1.42798,-28.99726 -0.39152,-32.86689 0.53545,-1.99909 1.15714,-2.26161 4.73635,-2 L 231.5,216.5 l 0.28587,16 c 0.35504,19.87123 0.22408,20.5 -4.26974,20.5 -2.38327,0 -3.76496,-0.59642 -4.48095,-1.93426 z M 48.491423,165.13502 C 43.874834,163.03775 38.377585,157.20931 37.264449,153.23166 36.844002,151.72925 36.5,141.4641 36.5,130.42023 v -20.07977 l 3,-4.84259 C 43.335164,99.30716 49.254569,96 56.5,96 c 7.245431,0 13.164836,3.30716 17,9.49787 l 3,4.84259 v 20.07977 c 0,11.04387 -0.344002,21.30902 -0.764449,22.81143 -0.420447,1.50241 -2.177841,4.34142 -3.90532,6.30891 -6.30918,7.18576 -15.163813,9.30827 -23.338808,5.59445 z m 10.802028,-7.7618 c 0.344731,-0.34474 -0.03027,-1.89739 -0.833333,-3.45034 -2.111917,-4.084 -2.111917,-40.76176 0,-44.84576 0.803064,-1.55295 1.178064,-3.1056 0.833333,-3.45034 -1.010907,-1.0109 -4.990464,-0.72195 -7.821393,0.56791 C 46.596623,108.41608 46,111.20954 46,131.81548 c 0,17.80789 0.125125,19.07387 2.138117,21.63298 2.914877,3.70566 9.172737,5.90735 11.155334,3.92476 z m 143.764519,7.44163 c -6.03438,-3.14466 -9.79533,-8.15695 -11.03826,-14.71093 -1.31369,-6.92706 -1.31757,-30.26036 -0.006,-37.17531 2.0015,-10.55385 8.31708,-16.157663 18.87708,-16.749628 6.14098,-0.344247 6.95879,-0.133393 11.53973,2.975257 8.31003,5.639231 9.01745,7.993591 9.37903,31.214251 0.30531,19.6074 0.2756,19.93753 -2.26061,25.12135 -3.47385,7.10029 -8.80742,10.76909 -16.37963,11.26705 -4.47654,0.29438 -6.6036,-0.11416 -10.11117,-1.94204 z m 16.86945,-11.44971 C 221.86504,150.90185 222,149.44627 222,131.01116 c 0,-19.68353 -0.005,-19.72402 -2.51715,-22.43516 -2.95477,-3.18826 -5.43647,-3.03891 -7.19299,0.43286 -1.54115,3.04609 -1.8064,40.50234 -0.31461,44.42604 1.31647,3.46258 5.20043,3.42851 7.95217,-0.0698 z m -94.60324,-14.74429 c -12.02431,-3.93354 -20.03173,-13.262 -22.40526,-26.10161 -0.66704,-3.60837 -0.95784,-15.948822 -0.75288,-31.949237 0.32866,-25.656 0.37527,-26.15807 2.93507,-31.615634 3.41432,-7.279402 7.61587,-11.938204 13.80386,-15.306132 16.09724,-8.761213 35.1598,-2.753052 43.94858,13.851763 l 2.64645,5 0.30239,30.572464 c 0.28823,29.141406 0.20275,30.838766 -1.82617,36.261546 -2.56093,6.8447 -9.35224,14.12782 -16.37432,17.56011 -5.97822,2.92206 -16.2015,3.71446 -22.27772,1.72673 z M 133.22104,126.25 c -6.80555,-8.65989 -6.69016,-8.02068 -7.04067,-39.004575 -0.36202,-32.001647 0.19699,-35.821461 6.28269,-42.931238 C 134.40838,42.041523 136,39.916105 136,39.591036 136,39.265966 134.34208,39 132.31572,39 124.39322,39 115.55039,45.881879 113.14143,53.922284 112.4084,56.368908 112,67.395596 112,84.740293 c 0,29.524377 0.52197,33.006787 5.78885,38.621637 3.53334,3.76677 9.7369,6.58857 14.54518,6.61611 l 3.83403,0.022 -2.94702,-3.75 z m 14.73328,-38.694958 c 0.65956,-0.794727 1.05216,-2.482227 0.87244,-3.75 C 148.56849,81.983165 147.87116,81.5 145.5,81.5 c -2.37116,0 -3.06849,0.483165 -3.32676,2.305042 C 141.81521,86.330648 143.52461,89 145.5,89 c 0.69031,0 1.79475,-0.650231 2.45432,-1.444958 z m 0.85181,-21.013799 c 0.37719,-7.341786 -1.80033,-13.517127 -6.01763,-17.065752 -4.0982,-3.448408 -8.16058,-3.086719 -8.60411,0.766055 -0.24766,2.151392 0.25282,3.000539 2.325,3.944686 3.64163,1.65924 5.49061,5.733081 5.49061,12.097441 0,6.168651 0.45777,6.920961 3.96258,6.512237 2.35918,-0.275124 2.55892,-0.714475 2.84355,-6.254667 z"
       id="path72"
       inkscape:connector-curvature="0" />
    <path
       style="fill:#3cbbbb"
       d="M 20.905062,315.79852 C 19.193585,314.40512 15,308.57969 15,307.59563 15,307.26803 16.251343,307 17.780762,307 c 2.169435,0 3.028904,0.6574 3.90949,2.99034 0.643753,1.7055 2.269746,3.42415 3.784337,4 3.333361,1.26734 12.908143,1.29884 17.525411,0.0577 1.925,-0.51747 7.674866,-1.3936 12.77748,-1.94697 9.986859,-1.08305 18.116563,-4.48349 20.909359,-8.74584 1.798323,-2.74459 0.398053,-8.75869 -3.36231,-14.44098 l -2.526029,-3.81709 -13.520134,0.61113 c -11.95535,0.54039 -13.627631,0.41903 -14.44894,-1.04857 C 42.318583,283.74686 41.30308,283 40.572755,283 c -0.730326,0 -1.862021,-0.64362 -2.514877,-1.43026 -0.947902,-1.14215 -0.784372,-1.64575 0.811814,-2.5 2.728975,-1.4605 2.944875,-1.38739 3.310757,1.12115 0.400277,2.74437 5.351659,4.1931 12.128414,3.54867 5.970547,-0.56776 8.028603,-2.2561 5.250007,-4.30688 C 58.491249,278.64471 56.327191,278 54.749853,278 53.092572,278 52.142854,277.57788 52.5,277 c 1.352145,-2.18782 7.382284,-1.04225 10.935408,2.07743 3.764096,3.30492 6.332874,3.22664 4.532113,-0.13812 C 67.161746,277.43371 67.254671,277 68.383029,277 71.524555,277 73,278.29024 73,281.03744 c 0,2.15965 0.528987,2.90417 2.25,3.16675 1.2375,0.18881 2.132748,0.90937 1.989439,1.60123 -0.143308,0.69187 0.690941,3.34662 1.853887,5.89944 2.611547,5.7327 2.836644,10.61005 0.60355,13.07759 -3.556256,3.92962 -0.772286,4.43498 3.803124,0.69036 2.813389,-2.30255 2.995341,-2.87569 2.925106,-9.21404 -0.04119,-3.71732 -0.638732,-7.80716 -1.327867,-9.08852 -1.157974,-2.15312 -1.076477,-2.30476 1.074894,-2 2.883721,0.40849 4.691374,5.15505 4.771425,12.52886 0.05134,4.72904 -0.237402,5.41925 -3.193558,7.63393 -1.7875,1.33916 -4.375,2.74784 -5.75,3.13041 -1.375,0.38257 -3.878493,1.31604 -5.563318,2.07439 -1.684824,0.75835 -5.059824,1.64761 -7.5,1.97614 C 66.496507,312.8425 60.9,313.73236 56.5,314.49144 c -12.287618,2.11985 -33.633857,2.9037 -35.594938,1.30708 z m 179.957378,-7.30866 c -10.92611,-2.17649 -15.60019,-5.41431 -14.44727,-10.00789 0.684,-2.72527 5.8718,-6.47209 8.96969,-6.47823 1.60268,-0.003 1.48946,0.30728 -0.75632,2.07381 -9.10273,7.16021 -2.53847,12.22927 17.37146,13.41463 5.775,0.34382 10.9275,1.04873 11.45,1.56647 1.41473,1.40185 -14.73661,0.99513 -22.58756,-0.56879 z m 30.95006,0.82703 c 0.72187,-0.28887 1.58437,-0.25335 1.91667,0.0789 0.33229,0.33229 -0.25834,0.56864 -1.3125,0.52522 -1.16495,-0.048 -1.4019,-0.28494 -0.60417,-0.60416 z M 241.5,309 c -0.33992,-0.55 0.0835,-1 0.94098,-1 2.77897,0 5.65425,-3.7724 4.96584,-6.51523 C 246.83051,299.18858 247.0521,299 250.32649,299 c 7.97325,0 10.81226,3.50149 7.11681,8.77749 -1.35232,1.9307 -2.46059,2.22251 -8.44099,2.22251 -3.78635,0 -7.16239,-0.45 -7.50231,-1 z m 13,-4.83333 c 0,-3.09065 -1.93564,-2.74858 -2.32694,0.41122 -0.2284,1.84433 0.073,2.50675 1,2.19776 0.72982,-0.24328 1.32694,-1.41732 1.32694,-2.60898 z m -137.02345,2.84539 c -6.71481,-0.98705 -16.44676,-3.82838 -19.22655,-5.61337 -5.072286,-3.25707 -1.286183,-8.57096 9.05507,-12.70899 6.62698,-2.65178 20.46255,-4.74075 19.33703,-2.91962 -0.35118,0.56822 -3.36461,1.34953 -6.69651,1.73624 -6.99252,0.81156 -18.27445,6.06736 -18.76891,8.74368 -0.22033,1.19252 0.31569,1.75 1.68261,1.75 1.11711,0 2.28283,0.87241 2.63083,1.96888 0.89481,2.81928 5.71184,3.88132 24.00988,5.29359 15.13024,1.16777 15.61948,1.26898 9,1.862 -9.17103,0.8216 -14.87699,0.7911 -21.02345,-0.11241 z m 44.12521,-0.8474 c -0.36178,-0.58537 0.25483,-1.55272 1.37023,-2.14967 1.11541,-0.59695 2.02801,-1.69204 2.02801,-2.43354 0,-1.60443 2.30111,-2.31803 7.0344,-2.18145 2.84761,0.0822 3.52528,0.52179 3.80026,2.46534 0.18407,1.30093 -0.0409,2.73258 -0.5,3.18145 -1.39948,1.36838 -12.99473,2.31225 -13.7329,1.11787 z m -126.765363,-2.3127 c 2.763943,-1.36811 4.902145,-3.33284 5.896577,-5.41819 1.467014,-3.07636 1.431307,-3.49016 -0.597967,-6.92952 C 37.819173,287.5792 38.045298,286 40.923159,286 42.831928,286 46,292.67365 46,296.69454 c 0,2.71936 -4.984251,6.92925 -9.781055,8.26145 -5.714005,1.58694 -6.136839,1.24929 -1.382548,-1.10403 z m 95.191633,-3.74571 c -2.03302,-1.3793 -0.81722,-1.69623 11.45695,-2.98659 10.09535,-1.06131 14.51529,-0.21086 9.26953,1.78357 -3.90763,1.48568 -19.01721,2.36268 -20.72648,1.20302 z m 99.67014,-1.3212 c -5.74589,-1.52381 -4.46296,-3.74455 3.30183,-5.71548 5.20739,-1.32178 6.50513,-2.03962 6.52578,-3.60973 0.0213,-1.61724 0.63311,-1.91355 3.5,-1.69506 5.08476,0.38752 5.97422,0.91283 5.97422,3.52832 0,2.12447 -0.61387,2.44677 -6.25,3.28138 -5.38387,0.79726 -6.29428,1.23733 -6.56955,3.17552 -0.34864,2.45481 -0.83557,2.53256 -6.48228,1.03505 z m -53.48602,-4.49951 c 0.21131,-1.99269 -0.2129,-2.8167 -1.5954,-3.09898 -1.57949,-0.32251 -1.77804,0.0347 -1.23095,2.21445 0.60506,2.41077 0.41,2.59899 -2.69356,2.59899 -3.10727,0 -3.31612,-0.20261 -2.92884,-2.84131 0.44369,-3.02303 -0.30482,-3.53147 -8.7634,-5.95267 -3.25747,-0.93242 -3.04959,-1.00614 3,-1.06377 4.72937,-0.0451 7.99582,0.58329 11.99116,2.30668 6.65484,2.87055 8.35416,5.04049 5.56771,7.10964 -2.83091,2.10215 -3.67076,1.78269 -3.34672,-1.27303 z m -58.58828,0.91488 c -1.27132,-2.05703 2.78735,-3.56153 13.12613,-4.8657 2.56782,-0.32391 4.25,-0.13318 4.25,0.48188 0,1.155 -7.46679,3.99292 -10.5,3.99076 -1.1,-7.8e-4 -2.96171,0.30645 -4.13714,0.68273 -1.17543,0.37628 -2.40797,0.24593 -2.73899,-0.28967 z M 143.25,292.21218 c -1.2375,-0.19321 -2.25,-0.76998 -2.25,-1.28173 0,-1.18666 6.69902,-1.22646 7.42974,-0.0441 0.67062,1.0851 -2.13008,1.802 -5.17974,1.32587 z M 18.426989,250.67033 c -0.280633,-0.73132 -0.37901,-15.28323 -0.218615,-32.33758 L 18.5,187.32485 21.36163,183.19759 C 26.532201,175.74021 29.455493,175 53.736269,175 h 21.10482 l 0.653552,2.9756 c 0.359453,1.63658 0.368651,3.43658 0.02044,4 C 75.166867,182.53902 71.758524,183 67.940983,183 H 61 v 8.8 c 0,9.53379 -0.743843,11.2 -5,11.2 -4.265636,0 -5,-1.66069 -5,-11.30699 0,-7.71116 -0.212366,-8.8255 -1.581787,-8.3 -0.869984,0.33385 -1.769984,0.60699 -2,0.60699 C 47.188196,184 47,198.7949 47,216.87756 c 0,27.76778 -0.22941,33.06794 -1.476084,34.10259 -1.425794,1.18331 -3.209827,1.11497 -14.156881,-0.54223 -2.569558,-0.38899 -4.388701,-0.21188 -4.809017,0.46821 -0.963224,1.55852 -7.515396,1.36852 -8.131029,-0.2358 z m 49.815987,0.17265 C 67.354016,249.95402 67,244.95754 67,233.3 V 217 h 4.023614 4.023614 L 74.773614,234.25 74.5,251.5 l -2.507024,0.29298 c -1.378863,0.16113 -3.066363,-0.26637 -3.75,-0.95 z m 11.781625,-0.31334 c -0.931241,-1.12207 -1.115853,-10.65601 -0.779387,-40.25 0.49775,-43.77968 0.761168,-45.59713 7.761417,-53.54983 2.208743,-2.50927 6.148328,-5.61249 8.754633,-6.89606 C 100.44011,147.52949 100.92339,147.5 134,147.5 h 33.5 l 5.72959,2.81356 c 9.04078,4.43955 13.78099,11.5592 15.27091,22.93644 0.62519,4.77398 2.87498,6.54104 4.13787,3.25 0.48646,-1.26768 3.84002,-1.5 21.65289,-1.5 24.25091,0 27.1781,0.74189 32.34711,8.19829 L 249.5,187.32625 V 219.41313 251.5 l -2.30504,0.32676 C 242.10404,252.54846 242,251.93801 242,221.34544 c 0,-31.38372 -0.41049,-33.95499 -5.87156,-36.77902 -4.96196,-2.56593 -7.49872,-2.02345 -10.2109,2.18358 -1.57815,2.44797 -4.23915,4.61802 -7.66398,6.25 l -5.24645,2.5 -0.004,27.60198 -0.004,27.60198 -8.75,0.51286 c -10.49817,0.61533 -75.78794,-0.001 -79.03144,-0.74658 l -2.28145,-0.52413 0.28145,-41.81287 0.28144,-41.81288 3.2087,-5.16018 L 129.9165,156 h -13.64297 c -16.396423,0 -20.705056,1.46594 -24.788554,8.43391 L 89,168.67572 v 40.46214 c 0,30.13722 -0.30621,40.76835 -1.2,41.66214 -1.66437,1.66437 -6.303593,1.50306 -7.775399,-0.27036 z M 216.8,184.8 c 0.66,-0.66 1.2,-1.56 1.2,-2 0,-1.13031 -10.75819,-1.00028 -11.46202,0.13854 -1.53249,2.47963 7.92781,4.19567 10.26202,1.86146 z m -79.38179,-1.40699 C 138.52232,182.96933 139,181.48337 139,178.47247 c 0,-3.96064 -0.24065,-4.36642 -2.94135,-4.95959 -4.34871,-0.95513 -7.05865,0.89623 -7.05865,4.8223 0,1.79565 0.54,3.80482 1.2,4.46482 1.29371,1.29371 4.66949,1.57105 7.21821,0.59301 z m 0.40099,-12.26011 c 0.82661,-0.52413 1.20001,-2.29208 1,-4.73469 L 138.5,162.5 H 134 c -4.36445,0 -4.50959,0.0999 -4.81823,3.31532 -0.17503,1.82343 0.21757,3.96093 0.87244,4.75 1.30389,1.57109 5.6781,1.89083 7.76499,0.56758 z m -35.10494,80.24803 C 102.32142,250.98808 102,239.9575 102,226.86852 c 0,-22.99251 -0.0696,-23.83541 -2.056466,-24.89874 -1.609913,-0.8616 -1.989918,-1.90068 -1.75,-4.78518 L 98.5,193.5 h 6 6 v 29 29 l -3.53574,0.29759 c -1.94466,0.16368 -3.85716,-0.0238 -4.25,-0.41666 z M 223.25,250.50417 C 221.53032,248.55095 221.486,219.914 223.2,218.2 c 1.29371,-1.29371 4.66949,-1.57105 7.21821,-0.59301 1.3494,0.51781 1.58179,2.91252 1.58179,16.3 0,10.87234 -0.36862,16.06163 -1.2,16.89301 -1.62337,1.62337 -6.01166,1.45142 -7.55,-0.29583 z M 50.145159,164.93005 c -4.475241,-1.79244 -8.198603,-5.11398 -10.385015,-9.26426 -1.946355,-3.69461 -2.237675,-6.04544 -2.575607,-20.78405 -0.433732,-18.91685 0.649938,-26.34314 4.514227,-30.93559 10.29217,-12.231547 29.878525,-7.470097 33.212111,8.07388 1.373916,6.40634 1.379361,33.00817 0.008,38.95992 -1.357098,5.88974 -5.213547,10.79583 -10.302761,13.10693 -4.418012,2.00631 -10.659004,2.36995 -14.470929,0.84317 z m 9.148292,-7.55683 c 0.344731,-0.34474 -0.03027,-1.89739 -0.833333,-3.45034 -2.111917,-4.084 -2.111917,-40.76176 0,-44.84576 0.803064,-1.55295 1.178064,-3.1056 0.833333,-3.45034 -1.010907,-1.0109 -4.990464,-0.72195 -7.821393,0.56791 C 46.596623,108.41608 46,111.20954 46,131.81548 c 0,17.80789 0.125125,19.07387 2.138117,21.63298 2.914877,3.70566 9.172737,5.90735 11.155334,3.92476 z m 143.827879,6.45783 c -2.84544,-1.40845 -5.38409,-3.75277 -7.25,-6.69499 L 193,152.60844 v -20.85388 c 0,-21.76679 0.37106,-23.9846 4.87059,-29.11097 4.48497,-5.109784 14.6145,-7.139054 21.42715,-4.292546 4.27404,1.785806 9.33687,7.671416 10.64213,12.371626 1.35311,4.87251 1.36545,36.63781 0.0161,41.49628 -3.10604,11.18378 -16.22823,16.86212 -26.83466,11.6121 z m 15.47897,-8.59636 C 221.49637,153.30093 222,149.63977 222,130.52029 v -19.6112 l -2.52337,-2.52337 c -3.00172,-3.00172 -5.46067,-2.78851 -7.18677,0.62314 -1.54115,3.04609 -1.8064,40.50234 -0.31461,44.42604 0.97437,2.56278 4.17867,3.43327 6.62505,1.79979 z m -91.78927,-17.24816 c -8.87207,-2.23648 -16.84702,-9.29232 -20.92654,-18.51476 -1.87135,-4.23048 -1.97055,-6.362 -1.6864,-36.233338 0.34616,-36.390684 0.25209,-35.962412 9.78188,-44.530515 6.66205,-5.989752 12.98866,-8.104538 22.39907,-7.487292 12.03837,0.789619 21.00495,6.900047 26.0153,17.72857 2,4.322452 2.10566,6.131428 2.10566,36.050805 v 31.5 l -2.67232,5.06346 c -3.20787,6.07822 -9.43742,11.93402 -15.59186,14.65642 -5.2063,2.303 -14.09147,3.11109 -19.42479,1.76665 z M 133.22104,126.25 c -6.80555,-8.65989 -6.69016,-8.02068 -7.04067,-39.004575 -0.36202,-32.001647 0.19699,-35.821461 6.28269,-42.931238 C 134.40838,42.041523 136,39.916105 136,39.591036 c 0,-1.173731 -6.59811,-0.565727 -11,1.01363 -4.90567,1.76011 -9.85267,7.305263 -11.86047,13.294557 C 112.39797,56.111313 112,66.80643 112,84.523497 c 0,29.759403 0.51527,33.216443 5.78885,38.838433 3.53334,3.76677 9.7369,6.58857 14.54518,6.61611 l 3.83403,0.022 -2.94702,-3.75 z m 15.79918,-39.287773 c 2.09035,-3.905859 -0.96282,-7.749996 -5.10994,-6.433749 C 139.66133,81.877039 140.99799,89 145.5,89 c 1.42119,0 2.88229,-0.845798 3.52022,-2.037773 z m -0.59165,-14.533656 c 3.14768,-3.147682 1.40136,-15.243243 -3.05305,-21.146303 -2.35993,-3.127417 -9.61723,-6.373893 -11.04863,-4.942487 -1.22494,1.224938 -0.68251,7.04168 0.69963,7.502391 0.74791,0.249305 2.39791,1.491351 3.66666,2.760101 C 140.58742,58.496509 141,59.977566 141,64.883117 141,70.931437 142.51461,74 145.5,74 c 0.74643,0 2.06429,-0.707143 2.92857,-1.571429 z"
       id="path70"
       inkscape:connector-curvature="0" />
    <path
       style="fill:#f16333"
       d="M 20.905062,315.79852 C 19.193585,314.40512 15,308.57969 15,307.59563 15,307.26803 16.251343,307 17.780762,307 c 2.169435,0 3.028904,0.6574 3.90949,2.99034 0.643753,1.7055 2.269746,3.42415 3.784337,4 3.333361,1.26734 12.908143,1.29884 17.525411,0.0577 1.925,-0.51747 7.674866,-1.3936 12.77748,-1.94697 9.986859,-1.08305 18.116563,-4.48349 20.909359,-8.74584 1.798323,-2.74459 0.398053,-8.75869 -3.36231,-14.44098 l -2.526029,-3.81709 -13.520134,0.61113 c -11.95535,0.54039 -13.627631,0.41903 -14.44894,-1.04857 C 42.318583,283.74686 41.30308,283 40.572755,283 c -0.730326,0 -1.862021,-0.64362 -2.514877,-1.43026 -0.947902,-1.14215 -0.784372,-1.64575 0.811814,-2.5 2.728975,-1.4605 2.944875,-1.38739 3.310757,1.12115 0.400277,2.74437 5.351659,4.1931 12.128414,3.54867 5.970547,-0.56776 8.028603,-2.2561 5.250007,-4.30688 C 58.491249,278.64471 56.327191,278 54.749853,278 53.092572,278 52.142854,277.57788 52.5,277 c 1.352145,-2.18782 7.382284,-1.04225 10.935408,2.07743 3.764096,3.30492 6.332874,3.22664 4.532113,-0.13812 C 67.161746,277.43371 67.254671,277 68.383029,277 71.524555,277 73,278.29024 73,281.03744 c 0,2.15965 0.528987,2.90417 2.25,3.16675 1.2375,0.18881 2.132748,0.90937 1.989439,1.60123 -0.143308,0.69187 0.690941,3.34662 1.853887,5.89944 2.611547,5.7327 2.836644,10.61005 0.60355,13.07759 -3.556256,3.92962 -0.772286,4.43498 3.803124,0.69036 2.813389,-2.30255 2.995341,-2.87569 2.925106,-9.21404 -0.04119,-3.71732 -0.638732,-7.80716 -1.327867,-9.08852 -1.157974,-2.15312 -1.076477,-2.30476 1.074894,-2 2.883721,0.40849 4.691374,5.15505 4.771425,12.52886 0.05134,4.72904 -0.237402,5.41925 -3.193558,7.63393 -1.7875,1.33916 -4.375,2.74784 -5.75,3.13041 -1.375,0.38257 -3.878493,1.31604 -5.563318,2.07439 -1.684824,0.75835 -5.059824,1.64761 -7.5,1.97614 C 66.496507,312.8425 60.9,313.73236 56.5,314.49144 c -12.287618,2.11985 -33.633857,2.9037 -35.594938,1.30708 z m 179.957378,-7.30866 c -10.92611,-2.17649 -15.60019,-5.41431 -14.44727,-10.00789 0.684,-2.72527 5.8718,-6.47209 8.96969,-6.47823 1.60268,-0.003 1.48946,0.30728 -0.75632,2.07381 -9.10273,7.16021 -2.53847,12.22927 17.37146,13.41463 5.775,0.34382 10.9275,1.04873 11.45,1.56647 1.41473,1.40185 -14.73661,0.99513 -22.58756,-0.56879 z m 30.95006,0.82703 c 0.72187,-0.28887 1.58437,-0.25335 1.91667,0.0789 0.33229,0.33229 -0.25834,0.56864 -1.3125,0.52522 -1.16495,-0.048 -1.4019,-0.28494 -0.60417,-0.60416 z M 241.5,309 c -0.33992,-0.55 0.0835,-1 0.94098,-1 2.77897,0 5.65425,-3.7724 4.96584,-6.51523 C 246.83051,299.18858 247.0521,299 250.32649,299 c 7.97325,0 10.81226,3.50149 7.11681,8.77749 -1.35232,1.9307 -2.46059,2.22251 -8.44099,2.22251 -3.78635,0 -7.16239,-0.45 -7.50231,-1 z m 13,-4.83333 c 0,-3.09065 -1.93564,-2.74858 -2.32694,0.41122 -0.2284,1.84433 0.073,2.50675 1,2.19776 0.72982,-0.24328 1.32694,-1.41732 1.32694,-2.60898 z m -137.02345,2.84539 c -6.71481,-0.98705 -16.44676,-3.82838 -19.22655,-5.61337 -5.072286,-3.25707 -1.286183,-8.57096 9.05507,-12.70899 6.62698,-2.65178 20.46255,-4.74075 19.33703,-2.91962 -0.35118,0.56822 -3.36461,1.34953 -6.69651,1.73624 -6.99252,0.81156 -18.27445,6.06736 -18.76891,8.74368 -0.22033,1.19252 0.31569,1.75 1.68261,1.75 1.11711,0 2.28283,0.87241 2.63083,1.96888 0.89481,2.81928 5.71184,3.88132 24.00988,5.29359 15.13024,1.16777 15.61948,1.26898 9,1.862 -9.17103,0.8216 -14.87699,0.7911 -21.02345,-0.11241 z m 44.12521,-0.8474 c -0.36178,-0.58537 0.25483,-1.55272 1.37023,-2.14967 1.11541,-0.59695 2.02801,-1.69204 2.02801,-2.43354 0,-1.60443 2.30111,-2.31803 7.0344,-2.18145 2.84761,0.0822 3.52528,0.52179 3.80026,2.46534 0.18407,1.30093 -0.0409,2.73258 -0.5,3.18145 -1.39948,1.36838 -12.99473,2.31225 -13.7329,1.11787 z m -126.765363,-2.3127 c 2.763943,-1.36811 4.902145,-3.33284 5.896577,-5.41819 1.467014,-3.07636 1.431307,-3.49016 -0.597967,-6.92952 C 37.819173,287.5792 38.045298,286 40.923159,286 42.831928,286 46,292.67365 46,296.69454 c 0,2.71936 -4.984251,6.92925 -9.781055,8.26145 -5.714005,1.58694 -6.136839,1.24929 -1.382548,-1.10403 z m 95.191633,-3.74571 c -2.03302,-1.3793 -0.81722,-1.69623 11.45695,-2.98659 10.09535,-1.06131 14.51529,-0.21086 9.26953,1.78357 -3.90763,1.48568 -19.01721,2.36268 -20.72648,1.20302 z m 99.67014,-1.3212 c -5.74589,-1.52381 -4.46296,-3.74455 3.30183,-5.71548 5.20739,-1.32178 6.50513,-2.03962 6.52578,-3.60973 0.0213,-1.61724 0.63311,-1.91355 3.5,-1.69506 5.08476,0.38752 5.97422,0.91283 5.97422,3.52832 0,2.12447 -0.61387,2.44677 -6.25,3.28138 -5.38387,0.79726 -6.29428,1.23733 -6.56955,3.17552 -0.34864,2.45481 -0.83557,2.53256 -6.48228,1.03505 z m -53.48602,-4.49951 c 0.21131,-1.99269 -0.2129,-2.8167 -1.5954,-3.09898 -1.57949,-0.32251 -1.77804,0.0347 -1.23095,2.21445 0.60506,2.41077 0.41,2.59899 -2.69356,2.59899 -3.10727,0 -3.31612,-0.20261 -2.92884,-2.84131 0.44369,-3.02303 -0.30482,-3.53147 -8.7634,-5.95267 -3.25747,-0.93242 -3.04959,-1.00614 3,-1.06377 4.72937,-0.0451 7.99582,0.58329 11.99116,2.30668 6.65484,2.87055 8.35416,5.04049 5.56771,7.10964 -2.83091,2.10215 -3.67076,1.78269 -3.34672,-1.27303 z m -58.58828,0.91488 c -1.27132,-2.05703 2.78735,-3.56153 13.12613,-4.8657 2.56782,-0.32391 4.25,-0.13318 4.25,0.48188 0,1.155 -7.46679,3.99292 -10.5,3.99076 -1.1,-7.8e-4 -2.96171,0.30645 -4.13714,0.68273 -1.17543,0.37628 -2.40797,0.24593 -2.73899,-0.28967 z M 143.25,292.21218 c -1.2375,-0.19321 -2.25,-0.76998 -2.25,-1.28173 0,-1.18666 6.69902,-1.22646 7.42974,-0.0441 0.67062,1.0851 -2.13008,1.802 -5.17974,1.32587 z M 18.426989,250.67033 c -0.280633,-0.73132 -0.37901,-15.28323 -0.218615,-32.33758 L 18.5,187.32485 21.36163,183.19759 C 26.530586,175.74254 29.459714,175 53.699093,175 c 20.549728,0 21.081122,0.0515 21.615879,2.09645 1.050808,4.0183 -0.126741,4.80451 -7.655853,5.11157 L 60.5,182.5 60,191.39597 c -0.394893,7.02591 -0.867874,9.12697 -2.25,9.99488 -1.271683,0.79856 -2.228317,0.79856 -3.5,0 -1.382126,-0.86791 -1.855107,-2.96897 -2.25,-9.99488 L 51.5,182.5 43,182.23334 c -7.106893,-0.22295 -9.042521,0.0675 -11.810176,1.7719 C 25.327937,187.61525 25,189.653 25,222.46788 V 252 h -3.031385 c -1.667261,0 -3.260993,-0.59835 -3.541626,-1.32967 z M 37,234.5 v -17.62672 l 3.25,0.31336 3.25,0.31336 v 17 17 l -3.25,0.31336 -3.25,0.31336 z m 31.712576,16.87924 C 68.320659,250.98733 68,243.09167 68,233.83333 V 217 h 3.523614 3.523614 L 74.773614,234.25 74.5,251.5 l -2.537424,0.29591 c -1.395583,0.16275 -2.858083,-0.0247 -3.25,-0.41667 z m 11.954091,-0.0459 C 80.3,250.96667 80,232.82334 80,211.01483 c 0,-44.90408 0.214924,-46.56924 7.006631,-54.28502 2.208743,-2.50927 6.148328,-5.61249 8.754633,-6.89606 4.595326,-2.26313 5.653286,-2.34365 34.959346,-2.66075 20.07719,-0.21724 32.07318,0.0576 35.74003,0.81883 11.07511,2.29918 19.44134,10.81659 21.68454,22.07637 0.59518,2.98749 1.36849,15.06549 1.71848,26.84 0.54518,18.34132 0.83295,21.17064 2.00878,19.75 0.78664,-0.95042 2.82467,-1.6582 4.77476,-1.6582 2.73202,0 3.59444,0.50535 4.37755,2.5651 1.45126,3.81711 1.26238,31.74777 -0.22475,33.2349 -1.4973,1.4973 -8.02504,1.57496 -9.48713,0.11287 -0.59793,-0.59793 -1.33247,-0.69017 -1.63233,-0.20499 -0.56335,0.91152 -60.38785,0.68731 -64.46198,-0.2416 l -2.28145,-0.52017 0.28145,-41.81287 0.28144,-41.81288 3.2087,-5.16018 L 129.91739,156 h -13.64297 c -16.396423,0 -20.705056,1.46594 -24.788554,8.43391 L 89,168.67572 v 40.46214 c 0,30.13722 -0.30621,40.76835 -1.2,41.66214 -1.283397,1.2834 -6.028496,1.63817 -7.133333,0.53333 z M 137.41821,183.39301 C 138.52232,182.96933 139,181.48337 139,178.47247 c 0,-3.96064 -0.24065,-4.36642 -2.94135,-4.95959 -4.34871,-0.95513 -7.05865,0.89623 -7.05865,4.8223 0,1.79565 0.54,3.80482 1.2,4.46482 1.29371,1.29371 4.66949,1.57105 7.21821,0.59301 z m 0.40099,-12.26011 c 0.82661,-0.52413 1.20001,-2.29208 1,-4.73469 L 138.5,162.5 H 134 c -4.36445,0 -4.50959,0.0999 -4.81823,3.31532 -0.17503,1.82343 0.21757,3.96093 0.87244,4.75 1.30389,1.57109 5.6781,1.89083 7.76499,0.56758 z m -35.10494,80.24803 C 102.32142,250.98808 102,239.9575 102,226.86852 c 0,-22.99251 -0.0696,-23.83541 -2.056466,-24.89874 -1.609913,-0.8616 -1.989918,-1.90068 -1.75,-4.78518 L 98.5,193.5 h 6 6 v 29 29 l -3.53574,0.29759 c -1.94466,0.16368 -3.85716,-0.0238 -4.25,-0.41666 z M 223.49767,249.8108 C 223.18364,248.53986 223.0557,240.75 223.21335,232.5 l 0.28665,-15 h 3.5 3.5 v 17 17 l -3.21569,0.3108 c -2.65707,0.25681 -3.31487,-0.0906 -3.78664,-2 z m 20.21491,1.56844 C 243.32066,250.98733 243,237.67721 243,221.80121 c 0,-31.19532 -0.40772,-34.05658 -5.3107,-37.26914 -1.36277,-0.89291 -4.06152,-1.88049 -5.99723,-2.19461 -3.27091,-0.5308 -3.70209,-0.28184 -6.10535,3.52516 -2.81813,4.46421 -8.17548,7.73273 -14.24495,8.69086 -4.67866,0.73857 -9.55952,-2.14578 -13.25931,-7.8356 C 196.75281,184.67304 194.86687,183 193.89147,183 c -2.60366,0 -3.24373,-1.73535 -1.86647,-5.06036 L 193.24264,175 h 21.06296 c 24.23495,0 27.16438,0.74279 32.33277,8.19829 L 249.5,187.32625 V 219.41313 251.5 l -2.53742,0.29591 c -1.39559,0.16275 -2.85809,-0.0247 -3.25,-0.41667 z M 216.8,184.8 c 0.66,-0.66 1.2,-1.56 1.2,-2 0,-1.13031 -10.75819,-1.00028 -11.46202,0.13854 -1.53249,2.47963 7.92781,4.19567 10.26202,1.86146 z M 50.145159,164.93005 c -4.475241,-1.79244 -8.198603,-5.11398 -10.385015,-9.26426 -1.946355,-3.69461 -2.237675,-6.04544 -2.575607,-20.78405 -0.433732,-18.91685 0.649938,-26.34314 4.514227,-30.93559 10.29217,-12.231547 29.878525,-7.470097 33.212111,8.07388 1.373916,6.40634 1.379361,33.00817 0.008,38.95992 -1.357098,5.88974 -5.213547,10.79583 -10.302761,13.10693 -4.418012,2.00631 -10.659004,2.36995 -14.470929,0.84317 z m 9.148292,-7.55683 c 0.344731,-0.34474 -0.03027,-1.89739 -0.833333,-3.45034 -2.111917,-4.084 -2.111917,-40.76176 0,-44.84576 0.803064,-1.55295 1.178064,-3.1056 0.833333,-3.45034 -1.010907,-1.0109 -4.990464,-0.72195 -7.821393,0.56791 C 46.596623,108.41608 46,111.20954 46,131.81548 c 0,17.80789 0.125125,19.07387 2.138117,21.63298 2.914877,3.70566 9.172737,5.90735 11.155334,3.92476 z m 143.827879,6.45783 c -2.84544,-1.40845 -5.38409,-3.75277 -7.25,-6.69499 L 193,152.60844 v -20.85388 c 0,-21.76679 0.37106,-23.9846 4.87059,-29.11097 4.48497,-5.109784 14.6145,-7.139054 21.42715,-4.292546 4.27404,1.785806 9.33687,7.671416 10.64213,12.371626 1.35311,4.87251 1.36545,36.63781 0.0161,41.49628 -3.10604,11.18378 -16.22823,16.86212 -26.83466,11.6121 z M 219.75,154.51739 223,151.02937 V 131.4795 c 0,-21.41341 -0.39013,-23.07852 -6.09884,-26.03061 -3.59938,-1.86131 -7.24683,-1.83862 -10.93389,0.068 C 200.59405,108.29552 200,110.92356 200,131.91554 v 19.01487 l 3.04805,3.47154 c 5.00471,5.70004 11.45687,5.74464 16.70195,0.11544 z m -92.93897,-16.53086 c -8.87207,-2.23648 -16.84702,-9.29232 -20.92654,-18.51476 -1.87135,-4.23048 -1.97055,-6.362 -1.6864,-36.233338 0.34616,-36.390684 0.25209,-35.962412 9.78188,-44.530515 6.66205,-5.989752 12.98866,-8.104538 22.39907,-7.487292 12.03837,0.789619 21.00495,6.900047 26.0153,17.72857 2,4.322452 2.10566,6.131428 2.10566,36.050805 v 31.5 l -2.67232,5.06346 c -3.20787,6.07822 -9.43742,11.93402 -15.59186,14.65642 -5.2063,2.303 -14.09147,3.11109 -19.42479,1.76665 z m 16.66018,-10.26465 c 3.87345,-2.08999 7.03526,-4.74449 9,-7.55594 L 155.5,115.83188 155.7845,85.66594 156.06899,55.5 152.7845,50.078649 c -2.55522,-4.217615 -4.61672,-6.157784 -9.2845,-8.738077 -6.28493,-3.474229 -10.37901,-4.058703 -16.5,-2.35555 -5.18788,1.443518 -10.94729,6.705977 -13.61923,12.444115 -2.29982,4.938976 -2.36149,5.783088 -2.371,32.454843 -0.0108,30.15751 0.38177,32.8769 5.63079,39.0092 7.33364,8.56771 16.75771,10.26376 26.83065,4.8287 z"
       id="path68"
       inkscape:connector-curvature="0" />
    <path
       style="fill:#5b6161"
       d="M 20.905062,315.79852 C 19.193585,314.40512 15,308.57969 15,307.59563 15,307.26803 16.251343,307 17.780762,307 c 2.169435,0 3.028904,0.6574 3.90949,2.99034 0.643753,1.7055 2.269746,3.42415 3.784337,4 3.333361,1.26734 12.908143,1.29884 17.525411,0.0577 1.925,-0.51747 7.674866,-1.3936 12.77748,-1.94697 9.986859,-1.08305 18.116563,-4.48349 20.909359,-8.74584 1.798323,-2.74459 0.398053,-8.75869 -3.36231,-14.44098 l -2.526029,-3.81709 -13.520134,0.61113 c -11.95535,0.54039 -13.627631,0.41903 -14.44894,-1.04857 C 42.318583,283.74686 41.30308,283 40.572755,283 c -0.730326,0 -1.862021,-0.64362 -2.514877,-1.43026 -0.947902,-1.14215 -0.784372,-1.64575 0.811814,-2.5 2.728975,-1.4605 2.944875,-1.38739 3.310757,1.12115 0.400277,2.74437 5.351659,4.1931 12.128414,3.54867 5.970547,-0.56776 8.028603,-2.2561 5.250007,-4.30688 C 58.491249,278.64471 56.327191,278 54.749853,278 53.092572,278 52.142854,277.57788 52.5,277 c 1.352145,-2.18782 7.382284,-1.04225 10.935408,2.07743 3.764096,3.30492 6.332874,3.22664 4.532113,-0.13812 C 67.161746,277.43371 67.254671,277 68.383029,277 71.524555,277 73,278.29024 73,281.03744 c 0,2.15965 0.528987,2.90417 2.25,3.16675 1.2375,0.18881 2.132748,0.90937 1.989439,1.60123 -0.143308,0.69187 0.690941,3.34662 1.853887,5.89944 2.611547,5.7327 2.836644,10.61005 0.60355,13.07759 -3.556256,3.92962 -0.772286,4.43498 3.803124,0.69036 2.813389,-2.30255 2.995341,-2.87569 2.925106,-9.21404 -0.04119,-3.71732 -0.638732,-7.80716 -1.327867,-9.08852 -1.157974,-2.15312 -1.076477,-2.30476 1.074894,-2 2.883721,0.40849 4.691374,5.15505 4.771425,12.52886 0.05134,4.72904 -0.237402,5.41925 -3.193558,7.63393 -1.7875,1.33916 -4.375,2.74784 -5.75,3.13041 -1.375,0.38257 -3.878493,1.31604 -5.563318,2.07439 -1.684824,0.75835 -5.059824,1.64761 -7.5,1.97614 C 66.496507,312.8425 60.9,313.73236 56.5,314.49144 c -12.287618,2.11985 -33.633857,2.9037 -35.594938,1.30708 z m 179.957378,-7.30866 c -10.92611,-2.17649 -15.60019,-5.41431 -14.44727,-10.00789 0.684,-2.72527 5.8718,-6.47209 8.96969,-6.47823 1.60268,-0.003 1.48946,0.30728 -0.75632,2.07381 -9.10273,7.16021 -2.53847,12.22927 17.37146,13.41463 5.775,0.34382 10.9275,1.04873 11.45,1.56647 1.41473,1.40185 -14.73661,0.99513 -22.58756,-0.56879 z m 30.95006,0.82703 c 0.72187,-0.28887 1.58437,-0.25335 1.91667,0.0789 0.33229,0.33229 -0.25834,0.56864 -1.3125,0.52522 -1.16495,-0.048 -1.4019,-0.28494 -0.60417,-0.60416 z M 241.5,309 c -0.33992,-0.55 0.0835,-1 0.94098,-1 2.77897,0 5.65425,-3.7724 4.96584,-6.51523 C 246.83051,299.18858 247.0521,299 250.32649,299 c 7.97325,0 10.81226,3.50149 7.11681,8.77749 -1.35232,1.9307 -2.46059,2.22251 -8.44099,2.22251 -3.78635,0 -7.16239,-0.45 -7.50231,-1 z m 13,-4.83333 c 0,-3.09065 -1.93564,-2.74858 -2.32694,0.41122 -0.2284,1.84433 0.073,2.50675 1,2.19776 0.72982,-0.24328 1.32694,-1.41732 1.32694,-2.60898 z m -137.02345,2.84539 c -6.71481,-0.98705 -16.44676,-3.82838 -19.22655,-5.61337 -5.072286,-3.25707 -1.286183,-8.57096 9.05507,-12.70899 6.62698,-2.65178 20.46255,-4.74075 19.33703,-2.91962 -0.35118,0.56822 -3.36461,1.34953 -6.69651,1.73624 -6.99252,0.81156 -18.27445,6.06736 -18.76891,8.74368 -0.22033,1.19252 0.31569,1.75 1.68261,1.75 1.11711,0 2.28283,0.87241 2.63083,1.96888 0.89481,2.81928 5.71184,3.88132 24.00988,5.29359 15.13024,1.16777 15.61948,1.26898 9,1.862 -9.17103,0.8216 -14.87699,0.7911 -21.02345,-0.11241 z m 44.12521,-0.8474 c -0.36178,-0.58537 0.25483,-1.55272 1.37023,-2.14967 1.11541,-0.59695 2.02801,-1.69204 2.02801,-2.43354 0,-1.60443 2.30111,-2.31803 7.0344,-2.18145 2.84761,0.0822 3.52528,0.52179 3.80026,2.46534 0.18407,1.30093 -0.0409,2.73258 -0.5,3.18145 -1.39948,1.36838 -12.99473,2.31225 -13.7329,1.11787 z m -126.765363,-2.3127 c 2.763943,-1.36811 4.902145,-3.33284 5.896577,-5.41819 1.467014,-3.07636 1.431307,-3.49016 -0.597967,-6.92952 C 37.819173,287.5792 38.045298,286 40.923159,286 42.831928,286 46,292.67365 46,296.69454 c 0,2.71936 -4.984251,6.92925 -9.781055,8.26145 -5.714005,1.58694 -6.136839,1.24929 -1.382548,-1.10403 z m 95.191633,-3.74571 c -2.03302,-1.3793 -0.81722,-1.69623 11.45695,-2.98659 10.09535,-1.06131 14.51529,-0.21086 9.26953,1.78357 -3.90763,1.48568 -19.01721,2.36268 -20.72648,1.20302 z m 99.67014,-1.3212 c -5.74589,-1.52381 -4.46296,-3.74455 3.30183,-5.71548 5.20739,-1.32178 6.50513,-2.03962 6.52578,-3.60973 0.0213,-1.61724 0.63311,-1.91355 3.5,-1.69506 5.08476,0.38752 5.97422,0.91283 5.97422,3.52832 0,2.12447 -0.61387,2.44677 -6.25,3.28138 -5.38387,0.79726 -6.29428,1.23733 -6.56955,3.17552 -0.34864,2.45481 -0.83557,2.53256 -6.48228,1.03505 z m -53.48602,-4.49951 c 0.21131,-1.99269 -0.2129,-2.8167 -1.5954,-3.09898 -1.57949,-0.32251 -1.77804,0.0347 -1.23095,2.21445 0.60506,2.41077 0.41,2.59899 -2.69356,2.59899 -3.10727,0 -3.31612,-0.20261 -2.92884,-2.84131 0.44369,-3.02303 -0.30482,-3.53147 -8.7634,-5.95267 -3.25747,-0.93242 -3.04959,-1.00614 3,-1.06377 4.72937,-0.0451 7.99582,0.58329 11.99116,2.30668 6.65484,2.87055 8.35416,5.04049 5.56771,7.10964 -2.83091,2.10215 -3.67076,1.78269 -3.34672,-1.27303 z m -58.58828,0.91488 c -1.27132,-2.05703 2.78735,-3.56153 13.12613,-4.8657 2.56782,-0.32391 4.25,-0.13318 4.25,0.48188 0,1.155 -7.46679,3.99292 -10.5,3.99076 -1.1,-7.8e-4 -2.96171,0.30645 -4.13714,0.68273 -1.17543,0.37628 -2.40797,0.24593 -2.73899,-0.28967 z M 143.25,292.21218 c -1.2375,-0.19321 -2.25,-0.76998 -2.25,-1.28173 0,-1.18666 6.69902,-1.22646 7.42974,-0.0441 0.67062,1.0851 -2.13008,1.802 -5.17974,1.32587 z M 18.426989,250.67033 c -0.280633,-0.73132 -0.37901,-15.28323 -0.218615,-32.33758 L 18.5,187.32485 21.36163,183.19759 C 26.530586,175.74254 29.459714,175 53.699093,175 c 20.549728,0 21.081122,0.0515 21.615879,2.09645 1.050808,4.0183 -0.126741,4.80451 -7.655853,5.11157 L 60.5,182.5 60,191.39597 c -0.394893,7.02591 -0.867874,9.12697 -2.25,9.99488 -1.271683,0.79856 -2.228317,0.79856 -3.5,0 -1.382126,-0.86791 -1.855107,-2.96897 -2.25,-9.99488 L 51.5,182.5 43,182.23334 c -7.106893,-0.22295 -9.042521,0.0675 -11.810176,1.7719 C 25.327937,187.61525 25,189.653 25,222.46788 V 252 h -3.031385 c -1.667261,0 -3.260993,-0.59835 -3.541626,-1.32967 z M 37,234.5 v -17.62672 l 3.25,0.31336 3.25,0.31336 v 17 17 l -3.25,0.31336 -3.25,0.31336 z m 31.712576,16.87924 C 68.320659,250.98733 68,243.09167 68,233.83333 V 217 h 3.523614 3.523614 L 74.773614,234.25 74.5,251.5 l -2.537424,0.29591 c -1.395583,0.16275 -2.858083,-0.0247 -3.25,-0.41667 z m 12.001484,10e-4 C 80.321327,250.98799 80,232.82334 80,211.01483 c 0,-44.90408 0.214924,-46.56924 7.006631,-54.28502 2.208743,-2.50927 6.148328,-5.61249 8.754633,-6.89606 4.595326,-2.26313 5.653286,-2.34365 34.959346,-2.66075 20.07719,-0.21724 32.07318,0.0576 35.74003,0.81883 11.07511,2.29918 19.44134,10.81659 21.68454,22.07637 0.59518,2.98749 1.36849,15.06549 1.71848,26.84 0.54518,18.34132 0.83295,21.17064 2.00878,19.75 0.78664,-0.95042 2.82467,-1.6582 4.77476,-1.6582 2.73202,0 3.59444,0.50535 4.37755,2.5651 1.45126,3.81711 1.26238,31.74777 -0.22475,33.2349 -1.47695,1.47695 -8.44094,1.58998 -9.33001,0.15144 -0.44676,-0.72288 -1.066,-0.70168 -1.99369,0.0682 -0.74011,0.61424 -2.83755,0.97359 -4.66098,0.79856 L 181.5,251.5 181,210 c -0.54076,-44.88344 -0.47957,-44.39042 -6.16863,-49.70227 C 169.46563,155.28776 167.26099,155 134.24401,155 c -29.99019,0 -30.93884,0.0606 -35.224154,2.25 -2.422158,1.2375 -5.780009,3.97867 -7.46189,6.09148 L 88.5,167.18296 88,209.34148 87.5,251.5 l -3.03594,0.29739 c -1.669767,0.16357 -3.357267,-0.0239 -3.75,-0.41666 z m 21.95261,-0.0474 C 102.3,250.96667 102,239.70254 102,226.30195 c 0,-20.73504 -0.22346,-24.45047 -1.5,-24.94032 -0.925514,-0.35516 -1.5,-1.8751 -1.5,-3.96862 V 194 h 5.5 5.5 v 29 29 h -3.33333 c -1.83334,0 -3.63334,-0.3 -4,-0.66667 z M 158,223 v -29 h 5.39301 c 3.99523,0 5.55033,0.40997 6,1.58179 0.9877,2.57389 0.73595,3.31931 -1.89301,5.60516 l -2.5,2.17372 V 227.68034 252 h -3.5 -3.5 z m 65.49767,26.8108 C 223.18364,248.53986 223.0557,240.75 223.21335,232.5 l 0.28665,-15 h 3.5 3.5 v 17 17 l -3.21569,0.3108 c -2.65707,0.25681 -3.31487,-0.0906 -3.78664,-2 z m 20.21491,1.56844 C 243.32066,250.98733 243,237.67721 243,221.80121 c 0,-31.19532 -0.40772,-34.05658 -5.3107,-37.26914 -1.36277,-0.89291 -4.06152,-1.88049 -5.99723,-2.19461 -3.27091,-0.5308 -3.70209,-0.28184 -6.10535,3.52516 -2.81813,4.46421 -8.17548,7.73273 -14.24495,8.69086 -4.67866,0.73857 -9.55952,-2.14578 -13.25931,-7.8356 C 196.75281,184.67304 194.86687,183 193.89147,183 c -2.60366,0 -3.24373,-1.73535 -1.86647,-5.06036 L 193.24264,175 h 21.06296 c 24.23495,0 27.16438,0.74279 32.33277,8.19829 L 249.5,187.32625 V 219.41313 251.5 l -2.53742,0.29591 c -1.39559,0.16275 -2.85809,-0.0247 -3.25,-0.41667 z M 216.8,184.8 c 0.66,-0.66 1.2,-1.56 1.2,-2 0,-1.13031 -10.75819,-1.00028 -11.46202,0.13854 -1.53249,2.47963 7.92781,4.19567 10.26202,1.86146 z M 50.145159,164.93005 c -4.475241,-1.79244 -8.198603,-5.11398 -10.385015,-9.26426 -1.946355,-3.69461 -2.237675,-6.04544 -2.575607,-20.78405 -0.433732,-18.91685 0.649938,-26.34314 4.514227,-30.93559 10.29217,-12.231547 29.878525,-7.470097 33.212111,8.07388 1.373916,6.40634 1.379361,33.00817 0.008,38.95992 -1.357098,5.88974 -5.213547,10.79583 -10.302761,13.10693 -4.418012,2.00631 -10.659004,2.36995 -14.470929,0.84317 z M 62.783205,156.4393 C 67.433157,153.18234 68,150.36765 68,130.53497 v -18.56434 l -3.306884,-3.60844 c -2.722178,-2.97041 -4.039637,-3.62764 -7.451066,-3.7171 -4.590331,-0.12036 -8.902347,2.41379 -10.977308,6.45131 -1.916374,3.72893 -1.729019,37.10511 0.229547,40.89256 C 48.609253,156.07884 51.80712,158 56.5,158 c 2.230243,0 5.057685,-0.70232 6.283205,-1.5607 z m 140.338125,7.39175 c -2.84544,-1.40845 -5.38409,-3.75277 -7.25,-6.69499 L 193,152.60844 v -20.85388 c 0,-21.76679 0.37106,-23.9846 4.87059,-29.11097 4.48497,-5.109784 14.6145,-7.139054 21.42715,-4.292546 4.27404,1.785806 9.33687,7.671416 10.64213,12.371626 1.35311,4.87251 1.36545,36.63781 0.0161,41.49628 -3.10604,11.18378 -16.22823,16.86212 -26.83466,11.6121 z M 219.75,154.51739 223,151.02937 V 131.4795 c 0,-21.41341 -0.39013,-23.07852 -6.09884,-26.03061 -3.59938,-1.86131 -7.24683,-1.83862 -10.93389,0.068 C 200.59405,108.29552 200,110.92356 200,131.91554 v 19.01487 l 3.04805,3.47154 c 5.00471,5.70004 11.45687,5.74464 16.70195,0.11544 z m -92.93897,-16.53086 c -8.87207,-2.23648 -16.84702,-9.29232 -20.92654,-18.51476 -1.87135,-4.23048 -1.97055,-6.362 -1.6864,-36.233338 0.34616,-36.390684 0.25209,-35.962412 9.78188,-44.530515 6.66205,-5.989752 12.98866,-8.104538 22.39907,-7.487292 12.03837,0.789619 21.00495,6.900047 26.0153,17.72857 2,4.322452 2.10566,6.131428 2.10566,36.050805 v 31.5 l -2.67232,5.06346 c -3.20787,6.07822 -9.43742,11.93402 -15.59186,14.65642 -5.2063,2.303 -14.09147,3.11109 -19.42479,1.76665 z m 16.66018,-10.26465 c 3.87345,-2.08999 7.03526,-4.74449 9,-7.55594 L 155.5,115.83188 155.7845,85.66594 156.06899,55.5 152.7845,50.078649 c -2.55522,-4.217615 -4.61672,-6.157784 -9.2845,-8.738077 -6.28493,-3.474229 -10.37901,-4.058703 -16.5,-2.35555 -5.18788,1.443518 -10.94729,6.705977 -13.61923,12.444115 -2.29982,4.938976 -2.36149,5.783088 -2.371,32.454843 -0.0108,30.15751 0.38177,32.8769 5.63079,39.0092 7.33364,8.56771 16.75771,10.26376 26.83065,4.8287 z"
       id="path66"
       inkscape:connector-curvature="0" />
    <path
       style="fill:#0e0f0e"
       d="M 19.550891,312.65561 C 16.604968,308.7933 16.425899,308 18.5,308 c 0.825,0 1.5,0.60526 1.5,1.34501 0,0.73976 0.9,2.1595 2,3.15499 1.1,0.99549 2,2.19023 2,2.65499 0,1.82117 -2.018606,0.68717 -4.449109,-2.49938 z M 69,310.52568 c 0,-0.92807 6.197353,-3.66166 6.841358,-3.01766 C 76.747221,308.41389 73.020225,311 70.80887,311 69.813992,311 69,310.78656 69,310.52568 Z M 247.55314,306.25 c 0.789,-1.5125 1.43731,-3.5375 1.4407,-4.5 0.003,-0.9625 0.43974,-1.75 0.96966,-1.75 0.52993,0 0.92286,2.025 0.87318,4.5 -0.0805,4.01078 -0.34188,4.5 -2.4042,4.5 -2.20533,0 -2.24658,-0.12901 -0.87934,-2.75 z m 7.83987,0.16821 c 0.33385,-0.86998 0.60699,-2.53498 0.60699,-3.7 0,-1.48621 0.31488,-1.80333 1.05536,-1.06285 1.22854,1.22854 0.20385,6.34464 -1.27076,6.34464 -0.54922,0 -0.72543,-0.7118 -0.39159,-1.58179 z M 165,305.43426 C 165,303.82889 167.25531,301 168.53518,301 c 1.79498,0 1.81632,0.95316 0.0728,3.25 C 167.35679,305.8982 165,306.67178 165,305.43426 Z m -87.145168,-1.66304 c 1.116713,-1.42493 1.135057,-2.65522 0.10437,-7 -0.687753,-2.89917 -2.084928,-6.34441 -3.104832,-7.65608 C 72.608652,286.22698 72.502992,285 74.5,285 c 0.825,0 1.5,0.69293 1.5,1.53984 0,0.84691 0.9,3.30398 2,5.46016 2.494026,4.88869 2.605174,10.2805 0.25,12.12756 -1.581357,1.24018 -1.619438,1.20584 -0.395168,-0.35634 z M 173,303 c 0,-1.1 0.45,-2 1,-2 0.55,0 1,0.9 1,2 0,1.1 -0.45,2 -1,2 -0.55,0 -1,-0.9 -1,-2 z m -85.41018,-3.16936 c 0.315517,-2.38185 0.12948,-6.26644 -0.413414,-8.63242 -0.710766,-3.09758 -0.676527,-4.19826 0.122315,-3.93198 2.72502,0.90834 3.581295,15.62315 0.959356,16.48623 -0.917074,0.30188 -1.091869,-0.72395 -0.668257,-3.92183 z m 12.66018,1.52169 c -3.713666,-1.83071 -4.148259,-4.22944 -1.242677,-6.85896 1.974797,-1.78716 1.997347,-1.76672 1.391747,1.26128 -0.536735,2.68367 -0.31485,3.12062 1.73246,3.41161 1.29142,0.18356 2.49813,1.12124 2.68158,2.08374 0.40866,2.14417 -0.38503,2.16197 -4.56311,0.10233 z M 188.2,301.8 c -1.744,-1.744 -1.48186,-3.23976 0.94551,-5.39501 2.13983,-1.89995 2.14224,-1.89876 0.9101,0.44724 -0.67947,1.29373 -1.01208,3.20623 -0.73913,4.25 0.5825,2.22748 0.47833,2.29258 -1.11648,0.69777 z M 42.153092,298.56335 c 0.976081,-2.14227 0.889017,-3.25183 -0.48051,-6.12376 C 39.813065,288.54014 39.579632,287 40.848126,287 c 0.466469,0 1.67022,1.82308 2.675003,4.05129 1.927011,4.27335 1.318935,8.83964 -1.29262,9.70683 -1.010462,0.33553 -1.026258,-0.1123 -0.07742,-2.19477 z m 91.659408,0.75354 c 0.72187,-0.28887 1.58437,-0.25335 1.91667,0.0789 0.33229,0.33229 -0.25834,0.56864 -1.3125,0.52522 -1.16495,-0.048 -1.4019,-0.28494 -0.60417,-0.60416 z m 99.49326,-3.84849 c 1.54317,-1.35762 3.4453,-2.4684 4.22695,-2.4684 0.78165,0 2.10719,-1.04697 2.94563,-2.3266 1.18081,-1.80215 2.20039,-2.2274 4.52306,-1.8865 2.03722,0.299 2.9986,1.00799 2.9986,2.21138 0,1.40299 -1.17616,1.91822 -5.65677,2.47804 -7.02754,0.87803 -8.34323,1.37173 -8.34323,3.13067 0,0.76615 -0.7875,1.37879 -1.75,1.36141 -1.39231,-0.0251 -1.17651,-0.53613 1.05576,-2.5 z m -63.89071,-2.95083 c -0.35397,-1.41033 -1.59229,-3.22873 -2.75182,-4.0409 L 164.55499,287 h 2.15108 c 2.64812,0 5.29393,2.50511 5.29393,5.01241 0,2.96372 -1.87588,3.33031 -2.58495,0.50516 z M 178,293.5 c 0,-0.825 0.45,-1.5 1,-1.5 0.55,0 1,0.675 1,1.5 0,0.825 -0.45,1.5 -1,1.5 -0.55,0 -1,-0.675 -1,-1.5 z m -51,-0.89301 c 0,-0.21616 0.675,-0.65203 1.5,-0.96862 0.825,-0.31658 1.5,-0.13972 1.5,0.39301 0,0.53274 -0.675,0.96862 -1.5,0.96862 -0.825,0 -1.5,-0.17686 -1.5,-0.39301 z M 60.031803,284.25 c 0.01749,-0.4125 0.63325,-1.54249 1.368352,-2.51109 1.214786,-1.60065 1.456561,-1.61648 2.653894,-0.17378 1.095924,1.3205 1.076031,1.74 -0.118351,2.49577 -1.749465,1.10702 -3.947333,1.21348 -3.903895,0.1891 z m 9.543068,-2.75 c 0.905585,-3.84547 1.229406,-4.17362 2.038335,-2.06559 0.396367,1.03292 -0.02023,2.38916 -1.042267,3.39313 -1.598309,1.57006 -1.659294,1.48878 -0.996068,-1.32754 z M 39,281 c 0,-0.55 0.45,-1 1,-1 0.55,0 1,0.45 1,1 0,0.55 -0.45,1 -1,1 -0.55,0 -1,-0.45 -1,-1 z M 19.209882,219.16149 19.5,187.18239 22.571102,183.3412 c 5.536281,-6.92453 7.264076,-7.33789 30.678898,-7.33965 L 74,176 v 2.45619 c 0,2.35538 -0.297564,2.46825 -7.25,2.75 L 59.5,181.5 59,191 c -0.491228,9.33333 -0.54386,9.5 -3,9.5 -2.45614,0 -2.508772,-0.16667 -3,-9.5 l -0.5,-9.5 -8.5,-0.26799 c -9.510528,-0.29985 -13.83414,1.18924 -17.339851,5.97203 -1.867842,2.54827 -1.987151,4.44929 -2.071085,33 L 24.5,250.5 l -2.790118,0.32029 -2.790118,0.3203 z m 18.23082,30.54458 c -0.273091,-0.71167 -0.371468,-8.02417 -0.218615,-16.25 L 37.5,218.5 40.25,218.18358 43,217.86716 V 234.43358 251 h -2.531385 c -1.392261,0 -2.754822,-0.58227 -3.027913,-1.29393 z M 69,234.5 V 218 H 71.5 74 V 234.5 251 H 71.5 69 Z m 12.708849,15.87552 C 81.318982,249.98565 81,232.04834 81,210.51483 81,164.64512 81.147165,163.6489 89.062025,155.93959 96.632563,148.56565 97.029123,148.5 134,148.5 c 37.30572,0 38.75313,0.2539 45.94877,8.06025 8.03762,8.71979 9.18274,16.56267 8.82464,60.43975 l -0.27341,33.5 -3.25,0.31336 -3.25,0.31336 v -38.01414 c 0,-44.01895 -0.29624,-46.46432 -6.36267,-52.52173 -6.28448,-6.27514 -8.33433,-6.59382 -42.25335,-6.56889 -27.8828,0.0205 -30.18412,0.15811 -34.365997,2.05499 -5.352843,2.42802 -7.663557,4.39936 -9.870362,8.42069 C 87.717012,167.10455 87.434144,172.96607 87,209 c -0.491909,40.82847 -0.533029,41.50473 -2.541151,41.79218 -1.122633,0.1607 -2.360133,-0.0268 -2.75,-0.41666 z m 21.957821,-0.0422 C 103.3,249.96667 103,238.76481 103,225.44032 c 0,-20.61204 -0.22378,-24.31222 -1.5,-24.80195 -0.825,-0.31658 -1.5,-1.71472 -1.5,-3.10699 C 100,195.19789 100.35179,195 104.5,195 h 4.5 v 28 28 h -2.33333 c -1.28334,0 -2.63334,-0.3 -3,-0.66667 z m 54.81087,-0.53127 c -0.2811,-0.73253 -0.39104,-13.47517 -0.24432,-28.31697 L 158.5,194.5 h 5 c 4.74341,0 5.01661,0.14494 5.3236,2.82437 0.24772,2.16214 -0.15856,2.95046 -1.73278,3.36213 -1.99562,0.52187 -2.06426,1.2656 -2.3236,25.17563 L 164.5,250.5 l -2.75569,0.31697 c -1.62166,0.18653 -2.966,-0.23112 -3.26677,-1.01491 z M 193,234 v -17.12672 l 3.25,0.31336 3.25,0.31336 v 16.5 16.5 l -3.25,0.31336 -3.25,0.31336 z m 32,0.56955 V 218 h 2.52477 2.52477 l -0.27477,16.25 c -0.27047,15.99547 -0.31001,16.25501 -2.52477,16.56955 L 225,251.1391 Z m 19.66667,15.76378 C 244.3,249.96667 244,236.90221 244,221.30121 c 0,-30.54249 -0.28474,-32.53597 -5.30886,-37.16703 -1.5661,-1.44358 -4.25361,-2.55597 -6.89428,-2.85361 -4.10989,-0.46324 -4.45271,-0.29781 -6.81227,3.28743 -3.51965,5.34793 -7.10261,7.64806 -12.6601,8.1273 -5.80653,0.50072 -10.34236,-1.91638 -13.43618,-7.16002 -1.11844,-1.89563 -2.90086,-3.72188 -3.96092,-4.05833 -2.0496,-0.65051 -2.29157,-1.36433 -1.3204,-3.89516 0.5264,-1.37177 3.34783,-1.58158 21.25,-1.58024 23.29622,0.002 25.03982,0.42036 30.57191,7.33965 l 3.0711,3.84119 0.28985,31.90881 c 0.27818,30.62519 0.21449,31.9088 -1.58334,31.9088 -1.03025,0 -2.17318,-0.3 -2.53984,-0.66667 z m -27.60093,-64.36851 c 1.06384,-0.56935 1.93426,-1.91935 1.93426,-3 C 219,181.21509 218.29489,181 212.55902,181 c -7.05895,0 -8.68364,1.09982 -6.00199,4.06301 1.93489,2.13804 7.33319,2.60129 10.50871,0.90181 z M 50,163.87927 c -1.375,-0.54667 -3.777674,-2.20565 -5.339276,-3.68661 -5.469822,-5.18737 -6.022441,-7.34858 -6.470606,-25.30564 -0.595262,-23.85098 1.293561,-30.54232 9.854259,-34.909659 7.596518,-3.875455 18.238995,-1.601254 22.857166,4.884369 3.384725,4.75341 4.327321,11.96186 3.918302,29.96502 -0.409871,18.04069 -0.940756,20.11814 -6.480569,25.35963 C 63.475344,164.78839 56.048251,166.28395 50,163.87927 Z m 13.905213,-7.45297 c 4.594106,-3.86568 5.284371,-7.75985 4.919831,-27.75548 L 68.5,110.84165 64.798854,107.45214 c -2.03563,-1.86423 -4.867572,-3.68227 -6.293205,-4.04008 -3.86224,-0.96936 -9.640647,1.66453 -12.295906,5.60467 -2.264987,3.36101 -2.314535,3.93354 -2.015902,23.29342 L 44.5,152.15786 l 3.735315,3.42107 c 4.872866,4.46292 10.980546,4.7932 15.669898,0.84737 z M 204.5,163.58264 c -3.72671,-1.66345 -8.03106,-6.17824 -9.43638,-9.89774 C 194.44079,152.03646 194,142.54102 194,130.77276 c 0,-19.60213 0.0612,-20.20151 2.48587,-24.33885 6.74903,-11.516352 24.76656,-11.016263 31.26518,0.86778 1.50874,2.75905 1.74895,6.09235 1.74895,24.27001 v 21.07171 l -2.68402,4.05715 c -4.68277,7.07845 -14.85083,10.21421 -22.31598,6.88208 z m 15.57797,-7.361 c 3.97778,-3.55415 4.83493,-7.93684 4.83493,-24.72164 0,-16.71156 -0.86365,-21.1733 -4.77493,-24.66803 -4.23706,-3.78582 -9.13829,-4.54683 -13.77759,-2.13925 -6.56157,3.40515 -7.36038,6.29641 -7.36038,26.64055 0,19.6112 0.70378,22.77962 5.75566,25.91194 1.54899,0.96042 4.80642,1.71316 7.47856,1.72818 3.78581,0.0213 5.35717,-0.52999 7.84375,-2.75175 z M 127.5,137.12016 c -5.35117,-1.41282 -11.05609,-4.88641 -14.76164,-8.98801 -7.37588,-8.16421 -7.20477,-7.22357 -7.54214,-41.462208 -0.35853,-36.387722 -0.0874,-37.909168 8.23856,-46.235159 6.63799,-6.637989 12.88575,-8.869755 23.01143,-8.219929 8.95886,0.574945 15.99549,4.128409 21.06805,10.639265 6.15717,7.902993 6.63669,11.282717 6.29159,44.343924 -0.29428,28.193737 -0.39118,29.461647 -2.56199,33.524157 -3.46759,6.48933 -7.87394,10.95003 -13.56226,13.72954 -5.58779,2.73039 -15.15544,3.99543 -20.1816,2.66842 z m 15.7703,-7.47616 c 6.16794,-2.72775 11.86595,-8.81768 13.56914,-14.50244 0.76083,-2.53942 1.153,-13.30547 1.1386,-31.25758 -0.0195,-24.341443 -0.22456,-27.828406 -1.84538,-31.38398 -2.80219,-6.147126 -6.70448,-10.152197 -12.6169,-12.949217 -9.44503,-4.468216 -18.29055,-3.016556 -25.88497,4.248044 -7.40058,7.079187 -7.58965,8.083933 -7.56494,40.201173 0.0235,30.58839 0.3342,32.90251 5.28905,39.39865 1.42405,1.86702 4.94011,4.56611 7.81348,5.99797 6.68538,3.33146 12.95383,3.40861 20.10192,0.24738 z"
       id="path64"
       inkscape:connector-curvature="0" />
  </g>
</svg>
